<svg width="110" height="110" viewBox="0 0 110 110" fill="none" xmlns="http://www.w3.org/2000/svg">
<rect width="110" height="110" rx="15" fill="#F1F2F5" fill-opacity="0.5"/>
<rect x="5" y="5" width="100" height="100" rx="15" fill="white"/>
<path d="M83.625 48.25C83.625 37.8031 77.7 20.125 55.5 20.125C55.0844 20.125 54.6875 20.2906 54.3937 20.5813L53.2812 21.6906C29.9125 22.025 27.3719 40.3375 27.3719 48.25C27.3719 51.775 28.1937 55.2344 28.675 56.9687C27.5656 58.6594 27.3719 60.6969 27.3719 62.3125C27.3719 65.3063 30.1469 72.0094 34.0906 73.1C34.1312 73.1969 34.1719 73.3 34.2156 73.4094C35.9156 77.6375 40.4406 88.875 55.4969 88.875C68.1562 88.875 73.3562 80.9437 75.7094 75.9C76.4625 75.0812 77.0156 74.0719 77.2469 72.9406C81.0031 71.5656 83.625 65.2125 83.625 62.3125C83.625 60.6969 83.4312 58.6594 82.3219 56.9687C82.8 55.2344 83.625 51.775 83.625 48.25Z" fill="#303C42"/>
<path d="M53.9344 24.8126C54.35 24.8126 54.7469 24.647 55.0406 24.3563L56.1406 23.2563C80.2187 23.6657 80.5 47.2376 80.5 48.2501C80.5 49.9845 80.275 51.7157 79.9969 53.1907C77.2625 41.9313 66.9375 35.7501 60.1844 35.7501C59.8469 35.7501 59.5187 35.8595 59.2469 36.0626C59.1875 36.1063 53.3281 40.4376 46.1219 40.4376C37.6 40.4376 32.4531 47.4563 30.9562 52.9563C30.7 51.5376 30.4969 49.8938 30.4969 48.2501C30.4969 39.497 33.5437 24.8126 53.9344 24.8126Z" fill="#6D4C41"/>
<path opacity="0.2" d="M32.0563 49.8095C32.0563 41.0563 35.1031 26.372 55.4938 26.372C55.9094 26.372 56.3063 26.2063 56.6 25.9157L57.7 24.8157C65.0719 24.9407 70.1969 27.2501 73.7813 30.4063C70.1781 26.4782 64.675 23.4032 56.1406 23.2563L55.0406 24.3563C54.75 24.6501 54.3531 24.8126 53.9375 24.8126C33.5469 24.8126 30.5 39.497 30.5 48.2501C30.5 49.8939 30.7031 51.5376 30.9594 52.9563C31.2125 52.022 31.6125 51.047 32.075 50.0688C32.0688 49.9813 32.0563 49.897 32.0563 49.8095Z" fill="white"/>
<path d="M75.8125 70.1247C75.2125 70.1247 74.6656 70.4685 74.4031 71.0091C74.2594 71.3091 74.0875 71.7278 73.8812 72.2403C73.6719 72.7591 73.4281 73.3653 73.1344 74.031C72.5844 74.4997 71.8969 74.8122 71.125 74.8122H64.3937C63.8469 73.8966 62.8906 73.2497 61.75 73.2497H58.625C56.9031 73.2497 55.5 74.6528 55.5 76.3747C55.5 78.0966 56.9031 79.4997 58.625 79.4997H61.75C62.8906 79.4997 63.85 78.8528 64.3937 77.9372H70.9969C68.3812 81.8153 63.8437 85.7497 55.4969 85.7497C42.55 85.7497 38.7406 76.2841 37.1125 72.2403C36.9062 71.7278 36.7344 71.3091 36.5906 71.0091C36.3312 70.4685 35.7844 70.1247 35.1844 70.1247C33.2219 70.1247 30.4969 64.6997 30.4969 62.3122C30.4969 60.3028 30.8844 59.1685 31.4406 58.456C31.4844 58.4185 31.5437 58.406 31.5812 58.3622C31.9469 57.9466 32.2969 57.6716 32.7156 57.481C33.2687 57.2278 33.6219 56.6716 33.6219 56.0622C33.6219 51.8216 38.0344 43.5622 46.1219 43.5622C53.2156 43.5622 59.0094 40.0091 60.6594 38.8872C65.8937 39.1966 75.9125 44.4872 77.3844 56.256C77.45 56.7903 77.7875 57.2528 78.2781 57.481C78.6937 57.6716 79.0531 57.9528 79.4125 58.3622C79.4562 58.4122 79.5187 58.4341 79.5687 58.4778C80.1156 59.1903 80.5 60.3216 80.5 62.3122C80.5 64.6997 77.7719 70.1247 75.8125 70.1247Z" fill="#FEE8D7"/>
<path opacity="0.1" d="M79.5687 58.4778C79.5187 58.4341 79.4562 58.4122 79.4125 58.3622C79.0531 57.9528 78.6937 57.6716 78.2781 57.481C77.7875 57.2528 77.45 56.7903 77.3844 56.256C75.9125 44.4903 65.8937 39.1997 60.6594 38.8872C60.6219 38.9122 60.5562 38.9528 60.5156 38.981C65.2 39.5997 73.4062 44.8778 74.65 56.256C74.7094 56.7903 75.0031 57.2528 75.4312 57.481C75.7937 57.6716 76.1094 57.9528 76.425 58.3622C76.4625 58.4122 76.5187 58.4341 76.5594 58.4778C77.0375 59.1903 77.375 60.3216 77.375 62.3122C77.375 64.6997 74.9906 70.1247 73.2719 70.1247C72.7469 70.1247 72.2687 70.4685 72.0406 71.0091C71.9156 71.3091 71.7656 71.7278 71.5844 72.2403C71.4031 72.7591 71.1875 73.3653 70.9281 74.031C70.45 74.4997 69.8469 74.8122 69.1687 74.8122H71.125C71.9 74.8122 72.5875 74.4997 73.1344 74.031C73.4281 73.3653 73.675 72.7591 73.8812 72.2403C74.0875 71.7278 74.2594 71.3091 74.4031 71.0091C74.6625 70.4685 75.2094 70.1247 75.8125 70.1247C77.775 70.1247 80.5 64.6997 80.5 62.3122C80.5 60.3216 80.1156 59.1903 79.5687 58.4778Z" fill="black"/>
<path opacity="0.2" d="M39.4125 72.2407C39.2312 71.7282 39.0812 71.3095 38.9562 71.0095C38.7281 70.4689 38.2469 70.1251 37.7219 70.1251C36.0062 70.1251 33.6219 64.7001 33.6219 62.3126C33.6219 60.3032 33.9594 59.1688 34.4469 58.4563C34.4844 58.4188 34.5375 58.4063 34.5687 58.3626C34.8906 57.947 35.1937 57.672 35.5594 57.4813C36.0437 57.2251 36.3531 56.672 36.3531 56.0626C36.3531 51.822 40.2125 43.5626 47.2906 43.5626C50.4219 43.5626 53.2594 42.6563 55.4937 41.6157C52.9406 42.6563 49.6969 43.5626 46.1187 43.5626C38.0312 43.5626 33.6187 51.822 33.6187 56.0626C33.6187 56.672 33.2656 57.2282 32.7094 57.4813C32.2906 57.6751 31.9406 57.947 31.575 58.3626C31.5375 58.4063 31.4781 58.4157 31.4344 58.4563C30.8844 59.1688 30.4969 60.3032 30.4969 62.3126C30.4969 64.7001 33.2219 70.1251 35.1844 70.1251C35.7844 70.1251 36.3312 70.4689 36.5937 71.0095C36.7375 71.3095 36.9094 71.7282 37.1156 72.2407C38.7406 76.2845 42.55 85.7501 55.4969 85.7501C44.1687 85.7501 40.8344 76.2845 39.4125 72.2407Z" fill="white"/>
<path d="M44.5594 60.75C46.2853 60.75 47.6844 59.3509 47.6844 57.625C47.6844 55.8991 46.2853 54.5 44.5594 54.5C42.8335 54.5 41.4344 55.8991 41.4344 57.625C41.4344 59.3509 42.8335 60.75 44.5594 60.75Z" fill="#303C42"/>
<path d="M66.4344 60.75C68.1603 60.75 69.5594 59.3509 69.5594 57.625C69.5594 55.8991 68.1603 54.5 66.4344 54.5C64.7085 54.5 63.3094 55.8991 63.3094 57.625C63.3094 59.3509 64.7085 60.75 66.4344 60.75Z" fill="#303C42"/>
<path d="M64.3906 77.9377C63.8437 78.8533 62.8875 79.5002 61.7469 79.5002H58.6219C57.9125 79.5002 57.2875 79.2189 56.7625 78.8189L62.5281 84.5846C66.5844 83.1377 69.2406 80.5377 70.9937 77.9346H64.3906V77.9377V77.9377Z" fill="url(#paint0_linear)"/>
<path d="M83.625 48.25C83.625 37.8031 77.7 20.125 55.5 20.125C55.0844 20.125 54.6875 20.2906 54.3937 20.5813L53.2812 21.6906C29.9125 22.025 27.3719 40.3375 27.3719 48.25C27.3719 51.775 28.1937 55.2344 28.675 56.9687C27.5656 58.6594 27.3719 60.6969 27.3719 62.3125C27.3719 65.3063 30.1469 72.0094 34.0906 73.1C34.1312 73.1969 34.1719 73.3 34.2156 73.4094C35.9156 77.6375 40.4406 88.875 55.4969 88.875C68.1562 88.875 73.3562 80.9437 75.7094 75.9C76.4625 75.0812 77.0156 74.0719 77.2469 72.9406C81.0031 71.5656 83.625 65.2125 83.625 62.3125C83.625 60.6969 83.4312 58.6594 82.3219 56.9687C82.8 55.2344 83.625 51.775 83.625 48.25Z" fill="url(#paint1_linear)"/>
<defs>
<linearGradient id="paint0_linear" x1="60.5431" y1="75.0399" x2="67.4609" y2="81.958" gradientUnits="userSpaceOnUse">
<stop stop-opacity="0.1"/>
<stop offset="1" stop-opacity="0"/>
</linearGradient>
<linearGradient id="paint1_linear" x1="27.2731" y1="40.8822" x2="82.5825" y2="66.6731" gradientUnits="userSpaceOnUse">
<stop stop-color="white" stop-opacity="0.2"/>
<stop offset="1" stop-color="white" stop-opacity="0"/>
</linearGradient>
</defs>
</svg>
