<svg width="110" height="110" viewBox="0 0 110 110" fill="none" xmlns="http://www.w3.org/2000/svg">
<g filter="url(#filter0_i)">
<rect width="110" height="110" rx="15" fill="#F1F2F5" fill-opacity="0.5"/>
</g>
<rect x="5" y="5" width="100" height="100" rx="15" fill="white"/>
<path d="M80.8375 55.3813C81.3469 53.7094 82.0625 50.45 82.0625 45.125C82.0625 39.1281 81.4406 36.0563 80.8438 34.4906L83.1656 32.1688C83.775 31.5594 83.775 30.5688 83.1656 29.9594C82.7688 29.5563 73.1375 20.125 55.5 20.125C48.6625 20.125 45.0531 22.4219 43.8844 23.3406C41.1969 23.8281 28.7375 26.9125 28.7375 42C28.7375 45.8719 29.8625 52.6375 30.3313 55.2719C27.7188 57.0875 27.375 60.0969 27.375 62.3125C27.375 65.3063 30.1531 72.0125 34.0938 73.1C34.1344 73.2 34.1719 73.3031 34.2188 73.4125C35.9219 77.6406 40.4469 88.875 55.5 88.875C70.5531 88.875 75.0781 77.6406 76.7812 73.4094C76.8281 73.3 76.8656 73.1969 76.9063 73.0969C80.85 72.0094 83.625 65.3031 83.625 62.3094C83.625 60.1438 83.3031 57.2063 80.8375 55.3813Z" fill="#303C42"/>
<path d="M44.7375 26.3656C45.075 26.325 45.4094 26.1656 45.6563 25.9313C45.6813 25.9031 48.5469 23.25 55.5 23.25C68.4157 23.25 76.8032 28.8062 79.7688 31.15L77.8344 33.0844C77.225 33.6937 77.1157 34.5594 77.725 35.1688C77.7782 35.2406 78.9407 37.0563 78.9407 45.1281C78.9407 46.1875 78.9094 47.1563 78.8594 48.0375C77.175 44.1188 74.2469 40.7594 70.3657 38.4563C66.9032 36.4 63.0219 35.3781 58.9719 35.3781C54.675 35.3781 50.1844 36.5344 45.8157 38.8344C41.9688 38.4594 38.7219 39.425 36.1563 41.6906C34.35 43.2844 33.1188 45.3094 32.2844 47.3344C32.0438 45.3781 31.8657 43.4469 31.8657 42.0031C31.8657 28.0094 44.2125 26.425 44.7375 26.3656Z" fill="#6D4C41"/>
<path opacity="0.2" d="M33.9 44.0375C33.9 30.0469 46.2469 28.4625 46.7719 28.4031C47.1094 28.3625 47.4438 28.2031 47.6907 27.9688C47.7188 27.9406 50.5844 25.2875 57.5344 25.2875C67.9438 25.2875 75.3532 28.8781 79.4094 31.5063L79.7657 31.15C76.8032 28.8063 68.4157 23.25 55.5 23.25C48.5469 23.25 45.6813 25.9031 45.6563 25.9313C45.4094 26.1656 45.075 26.325 44.7375 26.3656C44.2125 26.425 31.8657 28.0094 31.8657 42C31.8657 43.4438 32.0438 45.3719 32.2844 47.3313C32.7125 46.2938 33.25 45.2594 33.9094 44.2813C33.9063 44.2 33.9 44.1125 33.9 44.0375Z" fill="white"/>
<path d="M75.8125 70.1244C75.2125 70.1244 74.6656 70.4682 74.4062 71.0088C74.2594 71.3088 74.0875 71.7276 73.8844 72.2432C72.2531 76.2838 68.4437 85.7494 55.5 85.7494C42.5562 85.7494 38.7469 76.2838 37.1156 72.2432C36.9125 71.7276 36.7406 71.3088 36.5937 71.0088C36.3344 70.4682 35.7875 70.1244 35.1875 70.1244C33.225 70.1244 30.5 64.6994 30.5 62.3119C30.5 58.9651 31.5656 58.0119 32.7187 57.4807L32.7156 57.4713C33.2531 57.2244 33.625 56.6869 33.625 56.0619C33.625 53.8463 34.4531 47.3588 38.225 44.0307C40.2 42.2838 42.7969 41.5932 45.9344 41.9869C46.2562 42.0244 46.5906 41.9651 46.875 41.8088C54.5 37.6494 62.4781 37.4057 68.7687 41.1401C74.1562 44.3401 77.375 49.9182 77.375 56.0619C77.375 56.6807 77.7469 57.2088 78.2906 57.4619L78.2812 57.4807C79.4344 58.0119 80.5 58.9651 80.5 62.3119C80.5 64.6994 77.775 70.1244 75.8125 70.1244Z" fill="#FEE8D7"/>
<path opacity="0.2" d="M39.4156 72.2434C39.2375 71.7278 39.0875 71.3091 38.9594 71.0091C38.7312 70.4684 38.2531 70.1247 37.725 70.1247C36.0094 70.1247 33.625 64.6997 33.625 62.3122C33.625 58.9653 34.5562 58.0122 35.5656 57.4809L35.5625 57.4716C36.0344 57.2216 36.3594 56.6841 36.3594 56.0622C36.3594 53.8466 37.0844 47.3591 40.3844 44.0309C41.6125 42.7903 43.1281 42.1091 44.8781 41.9434C42.2219 41.8184 39.9687 42.4872 38.225 44.0309C34.4531 47.3591 33.625 53.8466 33.625 56.0622C33.625 56.6872 33.2531 57.2247 32.7156 57.4716L32.7187 57.4809C31.5656 58.0122 30.5 58.9653 30.5 62.3122C30.5 64.6997 33.225 70.1247 35.1875 70.1247C35.7875 70.1247 36.3344 70.4684 36.5937 71.0091C36.7406 71.3091 36.9125 71.7278 37.1156 72.2434C38.7469 76.2841 42.5562 85.7497 55.5 85.7497C44.175 85.7497 40.8406 76.2841 39.4156 72.2434Z" fill="white"/>
<path opacity="0.1" d="M78.2812 57.4815L78.2906 57.4628C77.7469 57.2096 77.375 56.6815 77.375 56.0628C77.375 49.919 74.1562 44.3409 68.7656 41.1409C65.5906 39.2565 61.9875 38.3909 58.2156 38.5253C61.3906 38.4628 64.4281 39.3221 67.1094 41.1409C71.825 44.3409 74.6437 49.919 74.6437 56.0628C74.6437 56.6815 74.9687 57.2096 75.4437 57.4628L75.4344 57.4815C76.4437 58.0128 77.375 58.9659 77.375 62.3128C77.375 64.7003 74.9906 70.1253 73.2719 70.1253C72.7469 70.1253 72.2687 70.469 72.0406 71.0096C71.9125 71.3096 71.7625 71.7284 71.5844 72.244C70.1594 76.2846 66.825 85.7503 55.5 85.7503C68.4437 85.7503 72.2531 76.2846 73.8844 72.244C74.0875 71.7284 74.2594 71.3096 74.4062 71.0096C74.6656 70.469 75.2125 70.1253 75.8125 70.1253C77.775 70.1253 80.5 64.7003 80.5 62.3128C80.5 58.9659 79.4344 58.0128 78.2812 57.4815Z" fill="black"/>
<path d="M44.5625 60.75C46.2884 60.75 47.6875 59.3509 47.6875 57.625C47.6875 55.8991 46.2884 54.5 44.5625 54.5C42.8366 54.5 41.4375 55.8991 41.4375 57.625C41.4375 59.3509 42.8366 60.75 44.5625 60.75Z" fill="#303C42"/>
<path d="M66.4375 60.75C68.1634 60.75 69.5625 59.3509 69.5625 57.625C69.5625 55.8991 68.1634 54.5 66.4375 54.5C64.7116 54.5 63.3125 55.8991 63.3125 57.625C63.3125 59.3509 64.7116 60.75 66.4375 60.75Z" fill="#303C42"/>
<path d="M80.8375 55.3813C81.3469 53.7094 82.0625 50.45 82.0625 45.125C82.0625 39.1281 81.4406 36.0563 80.8438 34.4906L83.1656 32.1688C83.775 31.5594 83.775 30.5688 83.1656 29.9594C82.7688 29.5563 73.1375 20.125 55.5 20.125C48.6625 20.125 45.0531 22.4219 43.8844 23.3406C41.1969 23.8281 28.7375 26.9125 28.7375 42C28.7375 45.8719 29.8625 52.6375 30.3313 55.2719C27.7188 57.0875 27.375 60.0969 27.375 62.3125C27.375 65.3063 30.1531 72.0125 34.0938 73.1C34.1344 73.2 34.1719 73.3031 34.2188 73.4125C35.9219 77.6406 40.4469 88.875 55.5 88.875C70.5531 88.875 75.0781 77.6406 76.7812 73.4094C76.8281 73.3 76.8656 73.1969 76.9063 73.0969C80.85 72.0094 83.625 65.3031 83.625 62.3094C83.625 60.1438 83.3031 57.2063 80.8375 55.3813Z" fill="url(#paint0_linear)"/>
<defs>
<filter id="filter0_i" x="0" y="0" width="110" height="114" filterUnits="userSpaceOnUse" color-interpolation-filters="sRGB">
<feFlood flood-opacity="0" result="BackgroundImageFix"/>
<feBlend mode="normal" in="SourceGraphic" in2="BackgroundImageFix" result="shape"/>
<feColorMatrix in="SourceAlpha" type="matrix" values="0 0 0 0 0 0 0 0 0 0 0 0 0 0 0 0 0 0 127 0" result="hardAlpha"/>
<feOffset dy="4"/>
<feGaussianBlur stdDeviation="5"/>
<feComposite in2="hardAlpha" operator="arithmetic" k2="-1" k3="1"/>
<feColorMatrix type="matrix" values="0 0 0 0 0.72549 0 0 0 0 0.760784 0 0 0 0 0.819608 0 0 0 0.5 0"/>
<feBlend mode="darken" in2="shape" result="effect1_innerShadow"/>
</filter>
<linearGradient id="paint0_linear" x1="27.2406" y1="40.2475" x2="82.8291" y2="66.1688" gradientUnits="userSpaceOnUse">
<stop stop-color="white" stop-opacity="0.2"/>
<stop offset="1" stop-color="white" stop-opacity="0"/>
</linearGradient>
</defs>
</svg>
