<svg width="110" height="110" viewBox="0 0 110 110" fill="none" xmlns="http://www.w3.org/2000/svg">
<rect width="110" height="110" rx="15" fill="#F1F2F5" fill-opacity="0.5"/>
<rect x="5" y="5" width="100" height="100" rx="15" fill="white"/>
<path d="M90.2094 76.8C91.4125 71.2812 93 57.85 93 54.5C93 33.8219 76.1781 17 55.5 17C34.8219 17 18 33.8219 18 54.5C18 57.85 19.5844 71.2625 20.7906 76.7906C20.725 76.8219 20.6531 76.8375 20.5875 76.8688C19.475 77.4281 18.6406 78.3906 18.2438 79.5812C17.425 82.0312 18.7563 84.6906 21.2063 85.5094C22 85.775 40.8813 92 55.5 92C75.0875 92 89.6094 85.6156 90.2156 85.3469C92.575 84.3 93.6438 81.525 92.5969 79.1594C92.1063 78.0563 91.2313 77.2531 90.2094 76.8Z" fill="#303C42"/>
<path d="M55.5 20.125C74.4531 20.125 89.875 35.5469 89.875 54.5C89.875 58.0156 88.125 72.0188 87.0594 76.5656C86.8406 76.625 86.6219 76.6844 86.4125 76.7781C86.2813 76.8375 72.9344 82.625 55.5 82.625C42.3813 82.625 24.35 76.675 24.1719 76.6156C24.0969 76.5906 24.0188 76.5844 23.9406 76.5625C22.8719 72.0125 21.125 58.0125 21.125 54.5C21.125 35.5469 36.5469 20.125 55.5 20.125Z" fill="#FAFAFA"/>
<path d="M88.9438 82.4908C88.3625 82.7533 74.4281 88.8752 55.5 88.8752C41.3813 88.8752 22.9688 82.8033 22.1938 82.5471C21.3781 82.2752 20.9344 81.3877 21.2094 80.5721C21.3406 80.1721 21.6188 79.8502 21.9906 79.6627C22.2063 79.5533 22.4438 79.4971 22.6813 79.4971C22.85 79.4971 23.0188 79.5252 23.1844 79.5783C23.3688 79.6408 41.85 85.7502 55.5 85.7502C73.6688 85.7502 87.5375 79.6971 87.6781 79.6346C88.4625 79.2846 89.3906 79.6408 89.7406 80.4252C90.0875 81.2158 89.7344 82.1408 88.9438 82.4908Z" fill="#E6E6E6"/>
<path d="M27.5781 74.5375C33.9031 76.3906 45.9344 79.5 55.5 79.5C68.0125 79.5 78.3813 76.5406 83.45 74.7781C83.9875 74.5906 84.3781 74.1281 84.475 73.5719C84.7937 71.7469 85.1531 69.3406 85.4937 66.8344C85.5594 66.5531 85.5844 66.2625 85.6094 65.9656C86.2313 61.25 86.75 56.3812 86.75 54.5C86.75 52.2156 86.475 49.8656 85.9344 47.5125C85.8313 47.0562 85.5281 46.6719 85.1094 46.4656L83.0219 45.425C81.35 43.6031 70.6344 32.625 55.5 32.625C40.3656 32.625 29.65 43.6031 27.975 45.4219L25.8875 46.4625C25.4687 46.6719 25.1687 47.0562 25.0625 47.5094C24.525 49.8656 24.25 52.2156 24.25 54.5C24.25 57.4531 25.525 67.7656 26.4781 73.3031C26.5813 73.8906 27.0063 74.3688 27.5781 74.5375Z" fill="#303C42"/>
<path d="M27.9563 48.925L29.6375 48.0844C29.8187 47.9937 29.9812 47.8688 30.1125 47.7156C30.2187 47.5969 40.7531 35.75 55.5 35.75C70.2031 35.75 80.7844 47.6 80.8875 47.7187C81.0219 47.8687 81.1844 47.9969 81.3625 48.0875L83.0437 48.9281C83.4281 50.8094 83.625 52.6812 83.625 54.5C83.625 56.2188 83.1 61.0563 82.4875 65.6969C82.35 67.2938 81.0469 68.5625 79.4156 68.5625H67.5219C66.9781 67.6469 66.0188 67 64.8781 67H61.7531C60.0281 67 58.6281 68.4031 58.6281 70.125C58.6281 71.8469 60.0281 73.25 61.7531 73.25H64.8781C66.0219 73.25 66.9781 72.6031 67.5219 71.6875H79.4156C80.2219 71.6875 80.9844 71.5219 81.6937 71.2437C81.6469 71.5344 81.6 71.8531 81.5562 72.1219C76.4125 73.8375 66.875 76.375 55.5 76.375C46.5375 76.375 34.8688 73.375 29.3969 71.8125C28.5125 66.3531 27.375 57.0375 27.375 54.5C27.375 52.6812 27.5688 50.8094 27.9563 48.925Z" fill="#5C6671"/>
<path d="M27.9563 48.925L29.6375 48.0844C29.8187 47.9937 29.9812 47.8688 30.1125 47.7156C30.2187 47.5969 40.7531 35.75 55.5 35.75C70.2031 35.75 80.7844 47.6 80.8875 47.7187C81.0219 47.8687 81.1844 47.9969 81.3625 48.0875L83.0437 48.9281C83.4281 50.8094 83.625 52.6812 83.625 54.5C83.625 56.2188 83.1 61.0563 82.4875 65.6969C82.35 67.2938 81.0469 68.5625 79.4156 68.5625H67.5219C66.9781 67.6469 66.0188 67 64.8781 67H61.7531C60.0281 67 58.6281 68.4031 58.6281 70.125C58.6281 71.8469 60.0281 73.25 61.7531 73.25H64.8781C66.0219 73.25 66.9781 72.6031 67.5219 71.6875H79.4156C80.2219 71.6875 80.9844 71.5219 81.6937 71.2437C81.6469 71.5344 81.6 71.8531 81.5562 72.1219C76.4125 73.8375 66.875 76.375 55.5 76.375C46.5375 76.375 34.8688 73.375 29.3969 71.8125C28.5125 66.3531 27.375 57.0375 27.375 54.5C27.375 52.6812 27.5688 50.8094 27.9563 48.925Z" fill="url(#paint0_linear)"/>
<path d="M27.9563 48.925L29.6375 48.0844C29.8187 47.9937 29.9812 47.8688 30.1125 47.7156C30.2187 47.5969 40.7531 35.75 55.5 35.75C70.2031 35.75 80.7844 47.6 80.8875 47.7187C81.0219 47.8687 81.1844 47.9969 81.3625 48.0875L83.0437 48.9281C83.4281 50.8094 83.625 52.6812 83.625 54.5C83.625 56.2188 83.1 61.0563 82.4875 65.6969C82.35 67.2938 81.0469 68.5625 79.4156 68.5625H67.5219C66.9781 67.6469 66.0188 67 64.8781 67H61.7531C60.0281 67 58.6281 68.4031 58.6281 70.125C58.6281 71.8469 60.0281 73.25 61.7531 73.25H64.8781C66.0219 73.25 66.9781 72.6031 67.5219 71.6875H79.4156C80.2219 71.6875 80.9844 71.5219 81.6937 71.2437C81.6469 71.5344 81.6 71.8531 81.5562 72.1219C76.4125 73.8375 66.875 76.375 55.5 76.375C46.5375 76.375 34.8688 73.375 29.3969 71.8125C28.5125 66.3531 27.375 57.0375 27.375 54.5C27.375 52.6812 27.5688 50.8094 27.9563 48.925Z" fill="url(#paint1_linear)"/>
<path d="M64.8781 70.125L64.875 71.6875V70.125H64.8781Z" fill="#303C42"/>
<path d="M89.7 51.0532L85.7313 47.0845C85.8125 47.222 85.9 47.3563 85.9375 47.5126C86.475 49.8657 86.75 52.2157 86.75 54.5001C86.75 56.3813 86.2313 61.2501 85.6094 65.9657C85.5844 66.2595 85.5563 66.5532 85.4938 66.8345C85.1563 69.3407 84.7969 71.747 84.475 73.572C84.3782 74.1314 83.9875 74.5938 83.45 74.7782C78.3813 76.5407 68.0125 79.5001 55.5 79.5001C45.9344 79.5001 33.9032 76.3907 27.5782 74.5376C27.3719 74.4782 27.2157 74.3376 27.0563 74.2063L27.0219 74.222L31.5719 78.772C38.0625 80.497 47.65 82.6251 55.5 82.6251C72.9344 82.6251 86.2813 76.8376 86.4125 76.7782C86.625 76.6845 86.8438 76.6251 87.0594 76.5657C88.125 72.0189 89.875 58.0157 89.875 54.5001C89.875 53.3376 89.8125 52.1876 89.7 51.0532Z" fill="url(#paint2_linear)"/>
<path d="M90.2094 76.8C91.4125 71.2812 93 57.85 93 54.5C93 33.8219 76.1781 17 55.5 17C34.8219 17 18 33.8219 18 54.5C18 57.85 19.5844 71.2625 20.7906 76.7906C20.725 76.8219 20.6531 76.8375 20.5875 76.8688C19.475 77.4281 18.6406 78.3906 18.2438 79.5812C17.425 82.0312 18.7563 84.6906 21.2063 85.5094C22 85.775 40.8813 92 55.5 92C75.0875 92 89.6094 85.6156 90.2156 85.3469C92.575 84.3 93.6438 81.525 92.5969 79.1594C92.1063 78.0563 91.2313 77.2531 90.2094 76.8Z" fill="url(#paint3_linear)"/>
<defs>
<linearGradient id="paint0_linear" x1="29.2647" y1="46.1191" x2="82.1762" y2="70.7922" gradientUnits="userSpaceOnUse">
<stop stop-color="white" stop-opacity="0.2"/>
<stop offset="1" stop-color="white" stop-opacity="0"/>
</linearGradient>
<linearGradient id="paint1_linear" x1="36.3656" y1="40.5156" x2="74.7641" y2="78.9141" gradientUnits="userSpaceOnUse">
<stop stop-color="white" stop-opacity="0.2"/>
<stop offset="1" stop-color="white" stop-opacity="0"/>
</linearGradient>
<linearGradient id="paint2_linear" x1="48.4835" y1="52.7601" x2="79.6744" y2="83.9507" gradientUnits="userSpaceOnUse">
<stop stop-opacity="0.1"/>
<stop offset="1" stop-opacity="0"/>
</linearGradient>
<linearGradient id="paint3_linear" x1="20.4312" y1="40.9772" x2="95.7881" y2="76.1166" gradientUnits="userSpaceOnUse">
<stop stop-color="white" stop-opacity="0.2"/>
<stop offset="1" stop-color="white" stop-opacity="0"/>
</linearGradient>
</defs>
</svg>
