<svg width="110" height="110" viewBox="0 0 110 110" fill="none" xmlns="http://www.w3.org/2000/svg">
<rect width="110" height="110" rx="15" fill="#F1F2F5" fill-opacity="0.5"/>
<rect x="5" y="5" width="100" height="100" rx="15" fill="white"/>
<path d="M83.6 53.6219L83.625 48.25C83.625 32.7438 71.0062 20.125 55.5 20.125C39.9938 20.125 27.375 32.7437 27.375 48.2562L27.4 53.6188C24.25 56.6219 24.25 60.8656 24.25 62.3125C24.25 65.9281 26.175 73.3625 30.775 75.9188C31.4344 77.6344 33.7344 81.5562 41.1281 83.8781C44.9188 87.1781 49.725 88.875 55.5 88.875C61.275 88.875 66.0813 87.1781 69.8719 83.8781C77.2656 81.5531 79.5656 77.6344 80.225 75.9188C84.825 73.3625 86.75 65.9281 86.75 62.3125C86.75 60.8656 86.75 56.6219 83.6 53.6219Z" fill="#303C42"/>
<path d="M55.5 85.7497C49.4312 85.7497 44.6094 83.6466 41.1688 79.4997C38.3188 76.0653 36.75 71.4372 36.75 66.4622V60.5685C38.7375 62.6028 41.5 63.8747 44.5625 63.8747C46.9156 63.8747 49.2469 63.0966 51.125 61.6872L53.625 59.8122C54.7062 59.006 56.2969 59.006 57.3781 59.8122L59.875 61.6872C61.7562 63.0997 64.0844 63.8747 66.4375 63.8747C69.5 63.8747 72.2625 62.6028 74.25 60.5685V66.4622C74.25 67.1935 74.1469 67.8935 74.0812 68.606C73.3375 72.1435 70.1938 74.8122 66.4375 74.8122H64.3937C63.8469 73.8966 62.8906 73.2497 61.75 73.2497H58.625C56.9031 73.2497 55.5 74.6528 55.5 76.3747C55.5 78.0966 56.9031 79.4997 58.625 79.4997H61.75C62.8906 79.4997 63.85 78.8528 64.3937 77.9372H66.4375C68.4125 77.9372 70.2406 77.3716 71.8406 76.4528C71.2625 77.5403 70.6031 78.5716 69.8344 79.4997C66.3906 83.6466 61.5688 85.7497 55.5 85.7497Z" fill="#FEE8D7"/>
<path d="M74.25 52.9375C74.25 57.2438 70.7438 60.75 66.4375 60.75C64.7563 60.75 63.0938 60.1937 61.75 59.1875L59.25 57.3125C58.175 56.5094 56.8438 56.0656 55.5031 56.0656C54.1625 56.0656 52.8312 56.5094 51.7531 57.3156L49.25 59.1875C47.9094 60.1937 46.2437 60.75 44.5625 60.75C40.2562 60.75 36.75 57.2438 36.75 52.9375V52.4187C36.75 50.9125 37.7719 49.6062 39.2313 49.2375C41.8594 48.5812 44.5656 48.25 47.275 48.25H63.7281C66.4375 48.25 69.1437 48.5812 71.7687 49.2375C73.2312 49.6031 74.25 50.9125 74.25 52.4187V52.9375Z" fill="#37474F"/>
<path d="M74.25 52.9375C74.25 57.2438 70.7438 60.75 66.4375 60.75C64.7563 60.75 63.0938 60.1937 61.75 59.1875L59.25 57.3125C58.175 56.5094 56.8438 56.0656 55.5031 56.0656C54.1625 56.0656 52.8312 56.5094 51.7531 57.3156L49.25 59.1875C47.9094 60.1937 46.2437 60.75 44.5625 60.75C40.2562 60.75 36.75 57.2438 36.75 52.9375V52.4187C36.75 50.9125 37.7719 49.6062 39.2313 49.2375C41.8594 48.5812 44.5656 48.25 47.275 48.25H63.7281C66.4375 48.25 69.1437 48.5812 71.7687 49.2375C73.2312 49.6031 74.25 50.9125 74.25 52.4187V52.9375Z" fill="url(#paint0_linear)"/>
<path d="M78.325 73.375C77.8594 73.575 77.5125 74.0187 77.4063 74.5156C77.3813 74.625 76.9281 76.3719 74.4594 78.2219C75.9594 75.4969 76.8375 72.3656 77.1688 69.0781C77.2969 68.4031 77.375 67.7125 77.375 67H77.3313C77.3344 66.8187 77.375 66.6469 77.375 66.4625V52.9375V52.4187C77.375 49.475 75.3812 46.9219 72.525 46.2094C69.65 45.4906 66.6906 45.125 63.725 45.125H47.275C44.3094 45.125 41.35 45.4906 38.475 46.2094C35.6188 46.9219 33.625 49.475 33.625 52.4187V52.9375V66.4625C33.625 70.7219 34.6469 74.7781 36.5438 78.2219C34.075 76.375 33.6219 74.6344 33.6 74.5437C33.5094 74.0219 33.1594 73.5812 32.675 73.375C29.1969 71.8875 27.375 65.3812 27.375 62.3125C27.375 61.025 27.375 57.6125 29.9438 55.5406C30.3156 55.2437 30.5281 54.7937 30.5281 54.3156L30.5 48.25C30.5 34.4656 41.7156 23.25 55.5 23.25C69.2844 23.25 80.5 34.4656 80.5 48.2437L80.4719 54.3187C80.4719 54.7937 80.6844 55.2437 81.0562 55.5437C83.625 57.6125 83.625 61.025 83.625 62.3125C83.625 65.3812 81.8031 71.8875 78.325 73.375Z" fill="#616161"/>
<path opacity="0.2" d="M29.575 64.5125C29.575 63.225 29.575 59.8125 32.1437 57.7406C32.5156 57.4437 32.7281 56.9938 32.7281 56.5156L32.7 50.45C32.7 36.6656 43.9156 25.45 57.7 25.45C64.0344 25.45 69.8094 27.8375 74.2187 31.7344C69.6344 26.5469 62.9531 23.25 55.5 23.25C41.7156 23.25 30.5 34.4656 30.5 48.25L30.5281 54.3156C30.5281 54.7906 30.3156 55.2406 29.9437 55.5406C27.375 57.6125 27.375 61.025 27.375 62.3125C27.375 65.2375 29.0469 71.2375 32.2156 73.0844C30.4875 70.4688 29.575 66.6625 29.575 64.5125Z" fill="white"/>
<path opacity="0.1" d="M38.3344 57.6031C39.2406 58.8094 40.4813 59.7375 41.9281 60.2594L53.9375 48.25H47.6875L38.3344 57.6031Z" fill="white"/>
<path opacity="0.1" d="M66.2813 48.4058L58.0188 56.6683C58.4438 56.8558 58.875 57.0308 59.2469 57.3089L61.7469 59.1839L71.7063 49.2245C69.9281 48.787 68.1094 48.5464 66.2813 48.4058Z" fill="white"/>
<path d="M69.8313 79.5C70.6031 78.5719 71.2594 77.5406 71.8375 76.4531C70.2375 77.3719 68.4094 77.9375 66.4344 77.9375H64.3906C63.8438 78.8531 62.8875 79.5 61.7469 79.5H58.6219C57.775 79.5 57.0094 79.1562 56.4438 78.6031L62.4594 84.6188C65.3625 83.6 67.8375 81.9063 69.8313 79.5Z" fill="url(#paint1_linear)"/>
<path d="M83.6 53.6219L83.625 48.25C83.625 32.7438 71.0062 20.125 55.5 20.125C39.9938 20.125 27.375 32.7437 27.375 48.2562L27.4 53.6188C24.25 56.6219 24.25 60.8656 24.25 62.3125C24.25 65.9281 26.175 73.3625 30.775 75.9188C31.4344 77.6344 33.7344 81.5562 41.1281 83.8781C44.9188 87.1781 49.725 88.875 55.5 88.875C61.275 88.875 66.0813 87.1781 69.8719 83.8781C77.2656 81.5531 79.5656 77.6344 80.225 75.9188C84.825 73.3625 86.75 65.9281 86.75 62.3125C86.75 60.8656 86.75 56.6219 83.6 53.6219Z" fill="url(#paint2_linear)"/>
<defs>
<linearGradient id="paint0_linear" x1="39.1678" y1="46.505" x2="71.1103" y2="61.4" gradientUnits="userSpaceOnUse">
<stop stop-color="white" stop-opacity="0.2"/>
<stop offset="1" stop-color="white" stop-opacity="0"/>
</linearGradient>
<linearGradient id="paint1_linear" x1="60.8297" y1="74.2172" x2="68.0256" y2="81.4131" gradientUnits="userSpaceOnUse">
<stop stop-opacity="0.1"/>
<stop offset="1" stop-opacity="0"/>
</linearGradient>
<linearGradient id="paint2_linear" x1="27.6872" y1="41.3528" x2="85.7509" y2="68.4281" gradientUnits="userSpaceOnUse">
<stop stop-color="white" stop-opacity="0.2"/>
<stop offset="1" stop-color="white" stop-opacity="0"/>
</linearGradient>
</defs>
</svg>
