<svg width="662" height="491" viewBox="0 0 662 491" fill="none" xmlns="http://www.w3.org/2000/svg">
<g clip-path="url(#clip0)">
<path opacity="0.19" d="M644.597 286.486C624.474 323.714 584.528 351.021 542.175 350.761C526.959 350.657 511.653 347.211 496.619 349.76C486.207 351.541 476.419 356.157 466.683 360.487C416.949 382.71 356.907 397.988 309.816 370.617C282.196 354.558 260.811 324.742 229.117 321.348C209.424 319.241 190.46 328.109 172.082 335.495C145.633 346.119 116.387 354.129 88.8582 346.743C59.8979 338.941 38.3957 315.626 24.0522 288.71C20.4562 281.978 17.2829 275.03 14.5506 267.905C-7.66745 210.184 -6.11856 140.565 30.6383 90.8014C58.3881 53.1442 102.382 30.9348 146.636 15.8511C248.224 -18.7634 347.366 15.0059 451.949 9.10245C480.284 7.50306 509.7 4.88942 536.175 15.0839C557.247 23.1849 574.558 38.7497 589.93 55.2637C618.773 86.2503 642.983 122.464 654.697 163.125C658.939 177.814 661.357 192.968 661.895 208.246C662.806 235.423 657.482 262.638 644.597 286.486Z" fill="#68E1FD"/>
<path opacity="0.19" d="M644.598 286.486C624.475 323.714 584.53 351.021 542.176 350.761C526.96 350.657 511.654 347.211 496.62 349.76C486.208 351.541 476.42 356.157 466.684 360.487C416.95 382.71 356.908 397.988 309.817 370.617C282.197 354.558 260.812 324.741 229.118 321.348C209.425 319.241 190.461 328.109 172.083 335.495C145.635 346.119 116.388 354.129 88.8593 346.743C59.899 338.941 38.3968 315.626 24.0533 288.71C35.0257 283.69 48.1457 286.343 60.2895 288.059C97.0726 293.223 134.569 288.278 168.751 273.756C205.052 258.23 242.941 232.471 284.28 241.859C324.629 250.961 362.921 282.039 406.082 275.667C422.157 273.301 436.721 264.901 449.672 255.122C478.658 233.225 501.54 203.877 531.464 183.28C561.387 162.683 603.298 152.397 633.456 172.656C646.29 181.277 655.193 194.176 661.883 208.298C662.807 235.423 657.484 262.638 644.598 286.486Z" fill="#68E1FD"/>
<path d="M490.867 144.79L523.043 195.503L498.638 210.417L466.671 217.374L490.867 144.79Z" fill="#68E1FD"/>
<path d="M490.867 144.79L523.043 195.503L498.638 210.417L466.671 217.374L490.867 144.79Z" fill="url(#paint0_linear)"/>
<path d="M268.413 358.81C268.765 358.875 282.926 453.525 282.926 453.525C282.926 453.525 293.221 455.995 292.857 453.525C292.493 451.054 294.276 420.783 296.384 414.801C298.493 408.82 292.48 358.81 292.48 358.81H268.413Z" fill="url(#paint1_linear)"/>
<path d="M314.359 358.173C314.359 358.173 316.481 405.998 320.698 417.987C324.915 429.976 330.213 454.643 330.213 454.643H343.228L340.833 357.171C340.833 357.171 325.995 347.354 314.359 358.173Z" fill="url(#paint2_linear)"/>
<path d="M280.232 447.153C283.46 446.737 286.74 448.116 289.954 447.764C291.297 447.45 292.676 447.314 294.054 447.361C294.27 447.376 294.474 447.469 294.627 447.621C294.747 447.806 294.798 448.027 294.77 448.246V452.537C294.77 454.604 294.77 456.867 293.469 458.492C292.167 460.117 289.746 460.703 287.573 460.885C286.87 460.992 286.153 460.934 285.477 460.716C284.817 460.393 284.239 459.927 283.785 459.35C282.34 457.777 281.247 456.867 281.052 454.747C281.026 454.071 280.336 447.153 280.232 447.153Z" fill="#68E1FD"/>
<path d="M342.2 449.039C342.422 448.987 342.653 448.991 342.873 449.052C343.092 449.112 343.293 449.226 343.458 449.384C343.622 449.541 343.744 449.737 343.813 449.954C343.882 450.171 343.896 450.402 343.853 450.625C344.012 453.702 343.811 456.788 343.254 459.818C343.187 460.632 342.966 461.427 342.604 462.159C341.667 463.797 339.571 464.291 337.697 464.395C334.846 464.578 331.618 464.044 329.887 461.795C329.039 460.4 328.518 458.83 328.364 457.205C328.065 455.514 327.466 453.889 327.193 452.211C326.946 450.768 327.323 450.066 328.794 449.858C330.863 449.546 333.024 449.507 335.12 449.377C337.501 449.195 339.857 449.091 342.2 449.039Z" fill="#68E1FD"/>
<path d="M257.207 483.549C257.069 484.353 257.149 485.18 257.441 485.942C257.787 486.602 258.266 487.183 258.849 487.649C259.431 488.114 260.104 488.454 260.825 488.646C265.563 490.272 280.062 480.402 284.644 478.387C288.674 476.693 292.531 474.616 296.163 472.184C296.527 471.924 295.577 459.181 295.317 457.244C295.321 457.097 295.295 456.952 295.241 456.815C295.188 456.679 295.107 456.555 295.005 456.451C294.815 456.338 294.6 456.275 294.38 456.269C292.193 456.086 289.994 456.269 287.794 456.269C286.668 456.286 285.543 456.238 284.423 456.125C283.419 455.84 282.391 455.653 281.351 455.566C279.685 455.748 276.483 460.976 275.038 461.782C258.521 471.027 257.649 480.454 257.207 483.549Z" fill="#25233A"/>
<path d="M327.05 468.635C326.733 469.869 326.627 471.149 326.737 472.418C327.115 474.382 328.82 475.786 330.421 476.996C333.349 479.193 349.307 495.122 358.587 489.999C359.171 489.601 359.624 489.04 359.889 488.386C360.228 487.64 360.426 486.838 360.474 486.02C360.803 482.457 360.026 478.879 358.249 475.773C356.661 473.043 347.133 464.708 346.17 461.704C345.584 459.883 345.402 457.66 343.775 456.633C343.555 456.474 343.291 456.387 343.02 456.386C342.609 456.439 342.223 456.616 341.914 456.893C339.076 458.791 335.406 458.297 332.152 457.829C331.202 457.686 329.184 456.529 328.403 457.049C327.245 457.855 327.388 461.08 327.336 462.25C327.366 464.382 327.27 466.514 327.05 468.635Z" fill="#25233A"/>
<path d="M347.979 136.325C347.979 136.325 392.155 108.837 392.858 108.238C393.561 107.64 438.205 71.3874 443.294 66.3032C448.384 61.219 452.262 52.5718 459.382 55.3805C466.502 58.1892 466.658 69.2809 457.586 79.3844C456.506 80.5937 449.438 80.4377 449.178 80.7627C448.566 81.4909 447.251 82.9083 443.307 87.2643C439.364 91.6204 415.219 117.783 401.188 124.492C387.157 131.202 359.98 160.108 359.98 160.108L347.979 136.325Z" fill="url(#paint3_linear)"/>
<path d="M253.848 139.914C252.065 141.995 212.575 119.785 212.575 119.785L165.965 72.4407C165.965 72.4407 157.948 65.458 152.26 75.0413C146.572 84.6247 160.863 93.9739 160.863 93.9739L170.195 95.4823C170.195 95.4823 192.817 133.061 198.401 134.947C203.985 136.832 244.933 170.056 245.323 165.712C245.714 161.369 253.848 139.914 253.848 139.914Z" fill="url(#paint4_linear)"/>
<path d="M273.242 97.3158C272.019 109.695 274.231 123.023 282.353 132.424C284.267 134.661 286.596 136.871 286.935 139.797C286.98 141.242 286.888 142.687 286.661 144.114C286.557 144.829 286.602 145.558 286.795 146.254C286.988 146.95 287.323 147.599 287.781 148.158C288.027 148.415 288.327 148.613 288.66 148.74C288.992 148.867 289.349 148.918 289.703 148.891C290.058 148.863 290.402 148.758 290.711 148.582C291.02 148.406 291.286 148.163 291.49 147.872L294.796 154.855C295.03 155.53 295.49 156.104 296.098 156.48C296.669 156.662 297.284 156.662 297.855 156.48C301.55 155.801 305.057 154.337 308.138 152.189C308.515 151.869 308.96 151.638 309.439 151.513C311.587 151.175 312.042 154.829 314.112 155.622C315.674 156.233 317.262 154.881 318.394 153.646L322.898 148.769C323.666 150.399 324.997 151.696 326.646 152.423C327.145 151.04 327.823 149.729 328.664 148.522C328.484 150.936 328.739 153.363 329.419 155.687L331.696 152.865C331.905 152.592 332.178 152.293 332.529 152.319C332.765 152.363 332.979 152.481 333.141 152.657L336.864 155.947C334.937 150.265 335.796 144.049 337.15 138.224C338.504 132.398 340.339 126.521 340.326 120.591C340.326 112.907 337.254 105.599 334.261 98.486C333.041 95.1894 331.377 92.0746 329.314 89.2278C326.269 85.3268 321.921 82.8562 317.6 80.5807C313.911 78.4211 309.871 76.9247 305.665 76.1596C302.371 75.8453 299.051 75.9546 295.786 76.4847C292.315 76.9008 288.822 77.3342 285.308 77.785C282.288 78.2141 280.934 78.3831 279.008 80.7497C275.221 85.5089 273.815 91.5164 273.242 97.3158Z" fill="#25233A"/>
<path d="M329.119 114.324C329.319 115.397 329.149 116.506 328.638 117.471C328.126 118.428 327.543 119.345 326.893 120.214C326.385 121.043 325.805 121.826 325.162 122.555C324.511 123.293 323.604 123.757 322.624 123.855C318.954 123.972 320.386 117.835 321.609 115.91C322.95 113.661 328.013 109.812 329.119 114.324Z" fill="url(#paint5_linear)"/>
<path d="M324.043 116.873C324.333 116.442 324.582 115.985 324.785 115.507C324.989 115.022 325.339 114.613 325.787 114.337C326.01 114.204 326.271 114.15 326.528 114.183C326.785 114.216 327.024 114.334 327.206 114.519C327.622 115.039 327.349 115.819 327.024 116.365C326.269 117.666 326.295 119.772 325.11 120.735C324.51 121.14 323.864 121.472 323.184 121.723C322.329 121.933 321.436 121.933 320.581 121.723C320.229 121.463 321.023 119.707 320.984 119.265C320.945 118.823 320.984 118.173 321.127 117.965C321.271 117.757 321.895 117.965 322.156 117.965C322.529 117.922 322.888 117.803 323.213 117.615C323.538 117.427 323.82 117.174 324.043 116.873Z" fill="url(#paint6_linear)"/>
<path d="M96.5517 155.388L62.4632 196.517L113.16 241.521L127.569 228.518L132.397 159.432C132.58 157.507 96.5517 155.388 96.5517 155.388Z" fill="#68E1FD"/>
<path d="M96.5517 155.388L62.4632 196.517L113.16 241.521L127.569 228.518L132.397 159.432C132.58 157.507 96.5517 155.388 96.5517 155.388Z" fill="url(#paint7_linear)"/>
<path d="M361.073 157.924C360.93 158.747 360.55 159.51 359.98 160.121C357.871 163.033 355.547 165.785 353.029 168.352C349.125 172.136 344.322 175.179 341.732 179.951C338.035 186.778 340.886 249.752 341.159 260.974C341.237 264.186 291.347 266.175 269.48 263.795C269.767 252.262 276.366 232.185 273.997 220.885C272.084 211.783 270.639 216.906 265.693 202.069C263.662 196.01 265.172 188.702 266.253 182.396C266.968 178.143 247.822 170.459 245.323 165.751C245.474 162.688 245.883 159.643 246.547 156.649C247.676 151.52 249.53 146.577 252.052 141.969C252.42 141.11 253.042 140.384 253.835 139.888C254.792 139.535 255.837 139.498 256.816 139.784C264.351 141.144 271.714 143.324 278.774 146.286C285.386 149.042 292.258 147.859 299.222 146.923C316.524 144.596 333.356 139.586 349.112 132.073C352.895 139.962 356.678 147.846 360.461 155.726C360.859 156.391 361.07 157.15 361.073 157.924Z" fill="#68E1FD"/>
<path d="M361.073 157.924C360.93 158.747 360.55 159.51 359.98 160.121C357.871 163.033 355.547 165.785 353.029 168.352C349.125 172.136 344.322 175.179 341.732 179.951C338.035 186.778 340.886 249.752 341.159 260.974C341.224 263.756 303.816 265.616 279.581 264.524L320.216 261.416C320.216 261.416 337.449 201.003 333.128 184.905C329.223 170.355 346.144 153.45 356.661 147.859L360.474 155.804C360.854 156.447 361.06 157.177 361.073 157.924Z" fill="url(#paint8_linear)"/>
<path d="M299.079 137.73C298.935 135.857 298.662 133.829 299.599 132.216C300.652 130.815 302.125 129.786 303.803 129.278C306.901 127.977 310.715 126.742 313.396 128.757C314.846 130.053 315.795 131.815 316.077 133.738C316.88 137.76 317.112 141.874 316.767 145.961C316.559 149.55 316.077 153.359 313.76 156.103C312.188 157.733 310.326 159.056 308.268 160.004C305.482 161.486 301.838 162.904 299.417 160.875C292.18 154.907 299.625 145.311 299.079 137.73Z" fill="url(#paint9_linear)"/>
<path d="M269.48 263.795L253.159 362.113C253.159 362.113 269.871 365.181 308.515 360.669C330.121 358.16 345.754 358.901 355.372 360.045C356.62 360.194 357.884 360.037 359.057 359.588C360.23 359.139 361.276 358.411 362.104 357.467C362.932 356.523 363.518 355.392 363.81 354.171C364.102 352.951 364.092 351.678 363.78 350.462L341.198 260.974C341.198 260.974 275.012 254.524 269.48 263.795Z" fill="#68E1FD"/>
<path d="M355.333 360.045C351.363 359.564 346.365 359.174 340.339 359.044C329.706 358.853 319.073 359.396 308.515 360.669C269.871 365.181 253.159 362.113 253.159 362.113L269.48 263.795C272.982 257.918 300.836 258.36 320.763 259.465H321.01C331.28 260.038 339.389 260.766 340.899 260.935H341.159V261.013L341.51 262.417L363.715 350.423C364.033 351.639 364.049 352.914 363.762 354.138C363.475 355.361 362.893 356.496 362.067 357.444C361.241 358.392 360.196 359.125 359.023 359.578C357.849 360.031 356.583 360.192 355.333 360.045Z" fill="url(#paint10_linear)"/>
<path d="M151.414 82.8303L124.002 139.472H126.488L152.26 84.3126C152.26 84.3126 152.754 82.8303 151.414 82.8303Z" fill="#68E1FD"/>
<path d="M152.26 141.904L160.863 94.039L162.855 94.3641L154.394 143.867C154.394 143.867 152.403 145.584 152.26 141.904Z" fill="#68E1FD"/>
<path d="M97.1374 136.702C97.1374 136.702 145.296 129.889 169.375 152.657L175.532 159.315L155.136 212.628C155.136 212.628 143.864 220.56 133.009 218.323C122.154 216.087 101.927 210.821 101.927 210.821C101.927 210.821 95.4193 208.74 95.4193 198.819C95.4193 188.897 97.1374 136.702 97.1374 136.702Z" fill="#68E1FD"/>
<path d="M97.1374 136.702C97.1374 136.702 145.296 129.889 169.375 152.657L175.532 159.315L155.136 212.628C155.136 212.628 143.864 220.56 133.009 218.323C122.154 216.087 101.927 210.821 101.927 210.821C101.927 210.821 95.4193 208.74 95.4193 198.819C95.4193 188.897 97.1374 136.702 97.1374 136.702Z" fill="url(#paint11_linear)"/>
<path d="M449.178 80.7628L438.661 151.877H440.197L450.753 80.7628H449.178Z" fill="#68E1FD"/>
<path d="M457.586 79.3844L469.782 138.172L472.059 137.769L458.783 77.941L457.586 79.3844Z" fill="#68E1FD"/>
<path d="M429.237 157.325C429.237 157.325 459.174 131.878 484.425 138.172H492.598C492.598 138.172 487.639 186.427 489.292 198.415C490.945 210.404 453.551 222.978 450.739 222.315C447.928 221.652 437.346 222.978 436.019 207.44C434.691 191.901 429.237 157.325 429.237 157.325Z" fill="#68E1FD"/>
<path d="M429.237 157.325C429.237 157.325 459.174 131.878 484.425 138.172H492.598C492.598 138.172 487.639 186.427 489.292 198.415C490.945 210.404 453.551 222.978 450.739 222.315C447.928 221.652 437.346 222.978 436.019 207.44C434.691 191.901 429.237 157.325 429.237 157.325Z" fill="url(#paint12_linear)"/>
<path d="M152.26 84.3126L147.418 151.929H149.839L153.743 84.3126C153.743 84.3126 152.702 82.5312 152.26 84.3126Z" fill="#68E1FD"/>
<path d="M155.995 89.917L170.209 150.655L173.267 149.797L157.791 91.6334L155.995 89.917Z" fill="#68E1FD"/>
<path d="M132.957 151.5L149.852 151.877L184.565 147.911L202.397 216.373L153.795 241.482L126.996 236.827L132.957 151.5Z" fill="#68E1FD"/>
<path d="M153.795 241.482L149.852 151.877L132.957 151.5L126.996 236.827L153.795 241.482Z" fill="url(#paint13_linear)"/>
<path d="M444.7 165.83L453.069 167.325L467.66 170.628L497.571 156.402L472.059 153.008L444.7 165.83Z" fill="#68E1FD"/>
<path d="M444.7 165.83L453.069 167.325L467.66 170.628L497.571 156.402L472.059 153.008L444.7 165.83Z" fill="url(#paint14_linear)"/>
<path d="M497.571 156.402L467.66 170.628L444.7 165.83L447.603 229.922L467.66 236.827L498.82 220.001L497.571 156.402Z" fill="#68E1FD"/>
<path d="M287.104 129.473C290.814 136.403 298.818 141.709 306.459 139.641C312.147 138.094 316.129 132.931 318.563 127.574C320.655 122.623 322.208 117.461 323.197 112.178C324.303 107.12 325.28 101.893 324.316 96.8087C323.216 91.8863 320.39 87.5193 316.349 84.4958C312.308 81.4723 307.318 79.9914 302.281 80.3206C279.659 82.5051 278.943 114.181 287.104 129.473Z" fill="url(#paint15_linear)"/>
<path d="M298.18 64.6518C307.37 62.7013 317.704 64.3528 324.707 70.5553C331.709 76.7578 334.95 87.0173 342.46 92.9468C344.881 94.8582 348.07 96.3016 351.025 95.3913C350.205 97.1224 348.918 98.5908 347.308 99.6313C345.699 100.672 343.83 101.243 341.914 101.282C343.172 102.568 344.77 103.47 346.521 103.882C345.55 105.133 344.319 106.158 342.912 106.885C341.505 107.613 339.956 108.026 338.373 108.095C339.163 108.701 339.701 109.576 339.883 110.553C336.72 112.178 332.933 112.022 329.471 111.281C326.545 110.643 323.78 109.416 321.345 107.674C318.91 105.933 316.856 103.713 315.309 101.152C307.89 88.0576 294.901 78.4742 284.54 94.8842C281.312 92.7387 277.876 90.2681 277.342 86.4452C275.832 75.1064 288.653 66.6673 298.18 64.6518Z" fill="#25233A"/>
<path d="M450.753 80.7628V167.325H453.069L451.911 80.4897L450.753 80.7628Z" fill="#68E1FD"/>
<path d="M454.761 80.2296L478.372 157.325H480.559L456.414 79.9435L454.761 80.2296Z" fill="#68E1FD"/>
<path d="M467.66 170.628V236.827L454.761 227.972L453.069 167.325L467.66 170.628Z" fill="url(#paint16_linear)"/>
<path d="M447.603 229.922L454.761 227.972L453.069 167.325L444.7 165.83L447.603 229.922Z" fill="url(#paint17_linear)"/>
<path d="M497.571 156.402L467.66 170.628V236.827L480.559 229.87L497.571 156.402Z" fill="url(#paint18_linear)"/>
<path d="M266.253 182.409C266.968 178.157 247.822 170.472 245.323 165.765C245.474 162.701 245.883 159.657 246.547 156.662C246.547 156.662 266.773 165.491 267.88 170.615C268.986 175.738 266.253 182.409 266.253 182.409Z" fill="url(#paint19_linear)"/>
<path d="M355.333 360.045C351.363 359.564 346.365 359.174 340.339 359.044L324.72 303.884C324.72 303.884 319.618 263.743 320.815 259.465H321.062L340.951 260.935H341.211V261.013L341.562 262.417L363.767 350.423C364.088 351.643 364.103 352.924 363.814 354.152C363.524 355.381 362.937 356.519 362.105 357.469C361.273 358.418 360.22 359.149 359.04 359.599C357.859 360.048 356.587 360.201 355.333 360.045Z" fill="url(#paint20_linear)"/>
</g>
<defs>
<linearGradient id="paint0_linear" x1="513.489" y1="157.091" x2="479.831" y2="224.487" gradientUnits="userSpaceOnUse">
<stop stop-opacity="0"/>
<stop offset="0.88" stop-opacity="0.8"/>
<stop offset="0.97"/>
</linearGradient>
<linearGradient id="paint1_linear" x1="268.413" y1="406.713" x2="296.84" y2="406.713" gradientUnits="userSpaceOnUse">
<stop stop-color="#ECC4D7"/>
<stop offset="0.42" stop-color="#EFD4D1"/>
<stop offset="1" stop-color="#F2EAC9"/>
</linearGradient>
<linearGradient id="paint2_linear" x1="7348.62" y1="38176.5" x2="7989.52" y2="38176.5" gradientUnits="userSpaceOnUse">
<stop stop-color="#ECC4D7"/>
<stop offset="0.42" stop-color="#EFD4D1"/>
<stop offset="1" stop-color="#F2EAC9"/>
</linearGradient>
<linearGradient id="paint3_linear" x1="31768.4" y1="15269.3" x2="42212.7" y2="15269.3" gradientUnits="userSpaceOnUse">
<stop stop-color="#ECC4D7"/>
<stop offset="0.42" stop-color="#EFD4D1"/>
<stop offset="1" stop-color="#F2EAC9"/>
</linearGradient>
<linearGradient id="paint4_linear" x1="12306.5" y1="14745.4" x2="20444.9" y2="14745.4" gradientUnits="userSpaceOnUse">
<stop stop-color="#ECC4D7"/>
<stop offset="0.42" stop-color="#EFD4D1"/>
<stop offset="1" stop-color="#F2EAC9"/>
</linearGradient>
<linearGradient id="paint5_linear" x1="2534.47" y1="1886.9" x2="2595.77" y2="1886.9" gradientUnits="userSpaceOnUse">
<stop stop-color="#ECC4D7"/>
<stop offset="0.42" stop-color="#EFD4D1"/>
<stop offset="1" stop-color="#F2EAC9"/>
</linearGradient>
<linearGradient id="paint6_linear" x1="2053.62" y1="1288.17" x2="2155.34" y2="1327.24" gradientUnits="userSpaceOnUse">
<stop stop-color="#ECC4D7"/>
<stop offset="0.42" stop-color="#EFD4D1"/>
<stop offset="1" stop-color="#F2EAC9"/>
</linearGradient>
<linearGradient id="paint7_linear" x1="3600.47" y1="19330.3" x2="7621.87" y2="18503" gradientUnits="userSpaceOnUse">
<stop stop-opacity="0"/>
<stop offset="0.88" stop-opacity="0.8"/>
<stop offset="0.97"/>
</linearGradient>
<linearGradient id="paint8_linear" x1="17259.3" y1="23739.6" x2="27357.2" y2="27197.5" gradientUnits="userSpaceOnUse">
<stop stop-opacity="0"/>
<stop offset="0.88" stop-opacity="0.8"/>
<stop offset="0.97"/>
</linearGradient>
<linearGradient id="paint9_linear" x1="5194.63" y1="6019.47" x2="5629.37" y2="6345.28" gradientUnits="userSpaceOnUse">
<stop stop-color="#ECC4D7"/>
<stop offset="0.42" stop-color="#EFD4D1"/>
<stop offset="1" stop-color="#F2EAC9"/>
</linearGradient>
<linearGradient id="paint10_linear" x1="12040.9" y1="32484.6" x2="32122.6" y2="31160.3" gradientUnits="userSpaceOnUse">
<stop stop-opacity="0"/>
<stop offset="0.88" stop-opacity="0.8"/>
<stop offset="0.97"/>
</linearGradient>
<linearGradient id="paint11_linear" x1="6090.25" y1="15486.7" x2="9993.37" y2="17371" gradientUnits="userSpaceOnUse">
<stop stop-opacity="0"/>
<stop offset="0.88" stop-opacity="0.8"/>
<stop offset="0.97"/>
</linearGradient>
<linearGradient id="paint12_linear" x1="21925.8" y1="15086.1" x2="24765.9" y2="17427.8" gradientUnits="userSpaceOnUse">
<stop stop-opacity="0"/>
<stop offset="0.88" stop-opacity="0.8"/>
<stop offset="0.97"/>
</linearGradient>
<linearGradient id="paint13_linear" x1="2137.51" y1="12169.5" x2="4550.11" y2="12534.3" gradientUnits="userSpaceOnUse">
<stop stop-opacity="0"/>
<stop offset="0.88" stop-opacity="0.8"/>
<stop offset="0.97"/>
</linearGradient>
<linearGradient id="paint14_linear" x1="19582.2" y1="1899.26" x2="19582.2" y2="2673.27" gradientUnits="userSpaceOnUse">
<stop stop-opacity="0"/>
<stop offset="0.88" stop-opacity="0.8"/>
<stop offset="0.97"/>
</linearGradient>
<linearGradient id="paint15_linear" x1="10381" y1="7633.46" x2="9737.58" y2="9991.44" gradientUnits="userSpaceOnUse">
<stop stop-color="#ECC4D7"/>
<stop offset="0.42" stop-color="#EFD4D1"/>
<stop offset="1" stop-color="#F2EAC9"/>
</linearGradient>
<linearGradient id="paint16_linear" x1="5888.87" y1="10433.5" x2="5213.17" y2="10491.4" gradientUnits="userSpaceOnUse">
<stop stop-opacity="0"/>
<stop offset="0.88" stop-opacity="0.8"/>
<stop offset="0.97"/>
</linearGradient>
<linearGradient id="paint17_linear" x1="4048.64" y1="9291.98" x2="3622.34" y2="9339.7" gradientUnits="userSpaceOnUse">
<stop stop-opacity="0"/>
<stop offset="0.88" stop-opacity="0.8"/>
<stop offset="0.97"/>
</linearGradient>
<linearGradient id="paint18_linear" x1="448.54" y1="161.031" x2="562.027" y2="279.77" gradientUnits="userSpaceOnUse">
<stop stop-color="white" stop-opacity="0"/>
<stop offset="0.84" stop-color="white" stop-opacity="0.84"/>
<stop offset="0.97" stop-color="white"/>
</linearGradient>
<linearGradient id="paint19_linear" x1="5221.72" y1="4821.88" x2="4274.89" y2="5311.77" gradientUnits="userSpaceOnUse">
<stop stop-opacity="0"/>
<stop offset="0.88" stop-opacity="0.8"/>
<stop offset="0.97"/>
</linearGradient>
<linearGradient id="paint20_linear" x1="9900.02" y1="30721.8" x2="12583.2" y2="30649.9" gradientUnits="userSpaceOnUse">
<stop stop-opacity="0"/>
<stop offset="0.88" stop-opacity="0.8"/>
<stop offset="0.97"/>
</linearGradient>
<clipPath id="clip0">
<rect width="662" height="491" fill="white"/>
</clipPath>
</defs>
</svg>
