<svg width="585" height="596" viewBox="0 0 585 596" fill="none" xmlns="http://www.w3.org/2000/svg">
<g clip-path="url(#clip0)">
<path opacity="0.18" d="M512.63 490.95C262.63 707.95 -96.08 552.75 23.85 340.95H305.06C306.972 340.95 308.864 340.573 310.63 339.842C312.396 339.11 314.001 338.037 315.352 336.685C316.703 335.333 317.775 333.728 318.505 331.961C319.236 330.195 319.611 328.302 319.61 326.39V99.9401C327.874 88.7773 334.896 76.7461 340.55 64.0601C363.5 12.2001 423 -13.6699 475.73 7.2901C613.29 62.0101 615.65 401.54 512.63 490.95Z" fill="#68E1FD"/>
<path opacity="0.05" d="M342.44 535.05C392.494 535.05 433.07 530.049 433.07 523.88C433.07 517.711 392.494 512.71 342.44 512.71C292.386 512.71 251.81 517.711 251.81 523.88C251.81 530.049 292.386 535.05 342.44 535.05Z" fill="#000405"/>
<path d="M342.76 516.69C342.76 518.2 327.12 527.12 311.85 527.12C296.58 527.12 303.77 512.3 308.98 512.46H314.19L317.11 511L328.32 505.26L329.99 501.66C329.99 501.66 338.9 503.66 340.41 501.34L341.87 511.42V513.24C342.447 514.299 342.753 515.484 342.76 516.69Z" fill="#3F3D56"/>
<path d="M341.87 513.24C342.428 514.304 342.713 515.489 342.7 516.69C342.7 518.2 327.07 527.12 311.8 527.12C296.53 527.12 303.72 512.3 308.93 512.46H314.14L317.06 511L341.66 511.42L341.87 513.24Z" fill="#3F3D56"/>
<path d="M320.14 521.49C316.378 522.459 312.432 522.459 308.67 521.49C305.23 519.61 304.14 518.2 304.29 516.74C304.44 515.28 306.48 511.1 314.72 513.09C322.96 515.08 324.67 519.45 324.67 519.45L320.14 521.49Z" fill="#3F3D56"/>
<path d="M381.12 517.47C377.65 521.875 373.288 525.497 368.319 528.096C363.35 530.695 357.887 532.213 352.29 532.55C336.66 532.55 344.22 517.89 349.43 517.89C350.882 517.92 352.332 517.779 353.75 517.47L360.16 511.73L379.92 512.09V514.02C380.604 515.051 381.016 516.237 381.12 517.47Z" fill="#3F3D56"/>
<path d="M361.1 526.18C357.343 527.16 353.397 527.16 349.64 526.18C346.2 524.3 345.1 522.9 345.26 521.43C345.42 519.96 347.45 515.8 355.68 517.78C363.91 519.76 365.43 524.2 365.43 524.2L361.1 526.18Z" fill="#3F3D56"/>
<path d="M310.6 346.41L326.23 501.19C326.23 501.19 336.66 504.94 341.3 501.19L347.76 379.29L366.05 502.23C366.05 502.23 374.6 507.76 379.86 501.5L386.69 345.63C386.69 345.63 332.33 357.22 310.6 346.41Z" fill="#68E1FD"/>
<path d="M310.6 346.41L326.23 501.19C326.23 501.19 336.66 504.94 341.3 501.19L347.76 379.29L366.05 502.23C366.05 502.23 374.6 507.76 379.86 501.5L386.69 345.63C386.69 345.63 332.33 357.22 310.6 346.41Z" fill="url(#paint0_linear)"/>
<path d="M403 311.03C391.58 320.48 386.37 315.94 386.37 315.94L386.74 345.63C386.74 345.63 326.9 360.19 310.59 346.41L313.04 284.11L316.73 255.98L290 275.46C287.64 277.225 284.92 278.447 282.033 279.038C279.146 279.629 276.164 279.575 273.3 278.88C269.25 277.83 265.42 275.34 264.21 269.88C261.29 256.88 263.21 204.66 263.21 204.66L280.15 199.44L286.36 241.18C286.36 241.18 311 220.48 321.92 216.45V216.24L347.25 204.39L365.44 200.06C367.478 201.649 369.657 203.048 371.95 204.24C377.422 207.467 383.394 209.758 389.62 211.02C397.81 211.91 401.24 227.25 402.34 234.51C403.44 241.77 411 277.68 411 277.68C411 277.68 414.42 301.59 403 311.03Z" fill="#68E1FD"/>
<path d="M365.58 198.79C364.695 200.706 363.431 202.422 361.864 203.835C360.297 205.248 358.459 206.329 356.462 207.011C354.465 207.694 352.351 207.964 350.247 207.806C348.142 207.647 346.092 207.064 344.22 206.09C344.22 206.09 331.29 228.59 349.79 225.92C359.59 224.51 366.52 212.47 367.56 201.55L365.58 198.79Z" fill="#3F3D56"/>
<path opacity="0.05" d="M364.75 282.54C365.41 281.83 367.93 281.91 368.88 282.15C373.13 283.23 384.88 286.15 386.28 285.26C387.94 284.21 381.69 241.47 381.69 241.47C381.69 241.47 380.28 265.11 350 276.47C335.25 282 360.11 289.56 360.11 289.56L364.75 282.54Z" fill="#000405"/>
<path opacity="0.05" d="M364.49 302.88C370.49 306.3 383.15 313.55 386.33 315.88V335.45C386.33 335.45 330.33 327.1 330.33 323.03C330.33 318.96 312.4 292.29 312.4 292.29L312.77 288.95L361.19 283.21C361.19 283.21 363.5 280.46 359.96 297.79C359.54 299.93 362.59 301.82 364.49 302.88Z" fill="#000405"/>
<path d="M353.96 279.41L350.05 259.84L306.74 264.07L316.18 322.77L359.49 319.49L353.96 279.41Z" fill="white"/>
<path d="M366.52 180.74C366.52 180.74 366.33 184.06 366.1 188.39C365.91 192.04 365.67 196.39 365.47 200.09C365.136 206.285 362.467 212.124 358 216.43C355.4 219.09 349.21 224.04 344.47 222.28C342.19 221.43 342.1 218.53 342.58 216.8C344.5 211.046 344.845 204.883 343.58 198.95C340.68 191.54 366.52 180.74 366.52 180.74Z" fill="url(#paint1_linear)"/>
<path d="M366.52 180.74C366.52 180.74 366.33 184.06 366.1 188.39C364.29 192.44 362.59 195.74 361.66 197.39C359.79 200.71 352.08 205.94 344.36 206.99C344.443 204.304 344.201 201.618 343.64 198.99C340.68 191.54 366.52 180.74 366.52 180.74Z" fill="url(#paint2_linear)"/>
<path d="M344 136.69C340.613 136.898 337.306 137.801 334.283 139.343C331.26 140.884 328.587 143.031 326.43 145.65C324.272 148.269 322.677 151.303 321.743 154.565C320.809 157.827 320.556 161.246 321 164.61C321.772 174.656 324.35 184.48 328.61 193.61C336.69 207.39 357.07 196.07 360.3 190.38C363.53 184.69 376 159.08 370.74 151.82C367.15 146.88 357.19 136.17 344 136.69Z" fill="url(#paint3_linear)"/>
<path d="M322.48 127.09L326.55 129.23C324.096 129.164 321.66 129.677 319.442 130.728C317.223 131.78 315.283 133.339 313.78 135.28C309.998 139.127 307.849 144.286 307.78 149.68L314.92 146.29C314.92 146.29 314.4 155.06 327.85 155.74C341.3 156.42 355.57 156.94 355.57 156.94L350.99 150.62C350.99 150.62 359.48 154.02 360.84 157.09C362.155 162.042 363.095 167.086 363.65 172.18C363.65 172.18 367.04 163.57 368.34 165.44C369.64 167.31 366.88 175.15 365.11 176.92C363.34 178.69 363.65 183.81 363.5 184.23C363.35 184.65 371.84 177.6 372.25 175.23C372.66 172.86 381.17 148.23 375.64 143.14L379 142.88C377.013 141.542 374.751 140.667 372.38 140.32C372.38 140.32 350.21 111.28 322.48 127.09Z" fill="#3F3D56"/>
<path d="M314.19 512.51C314.19 512.51 319.41 515.17 319.72 519.29L320.14 521.54C320.14 521.54 339.73 517.83 341.92 513.29L340.98 506.41C339.869 507.657 338.463 508.606 336.891 509.17C335.319 509.735 333.631 509.896 331.98 509.64C327.34 508.23 328.23 505.26 328.23 505.26L314.19 512.51Z" fill="#68E1FD"/>
<path d="M355.58 518.41L353.86 517.52L366.63 506.09C366.63 506.09 369.39 512.77 379.08 507.4L380.28 514.23C374.711 520.122 367.652 524.396 359.85 526.6C359.816 524.998 359.414 523.426 358.673 522.006C357.932 520.585 356.874 519.355 355.58 518.41Z" fill="#68E1FD"/>
<path opacity="0.61" d="M314.19 512.51C314.19 512.51 319.41 515.17 319.72 519.29L320.14 521.54C320.14 521.54 339.73 517.83 341.92 513.29L340.98 506.41C339.869 507.657 338.463 508.606 336.891 509.17C335.319 509.735 333.631 509.896 331.98 509.64C327.34 508.23 328.23 505.26 328.23 505.26L314.19 512.51Z" fill="url(#paint4_linear)"/>
<path opacity="0.61" d="M355.58 518.41L353.86 517.52L366.63 506.09C366.63 506.09 369.39 512.77 379.08 507.4L380.28 514.23C374.711 520.122 367.652 524.396 359.85 526.6C359.816 524.998 359.414 523.426 358.673 522.006C357.932 520.585 356.874 519.355 355.58 518.41Z" fill="url(#paint5_linear)"/>
<path d="M339.73 354.08C339.73 354.08 342.29 374.96 347.97 379.29L346.2 354.76L339.73 354.08Z" fill="#3F3D56"/>
<path d="M376.49 347.82L378.93 502.12L386.69 345.63L376.49 347.82Z" fill="#3F3D56"/>
<path d="M356.31 299.88C350.833 299.883 345.398 298.929 340.25 297.06C339.417 296.814 338.644 296.397 337.981 295.836C337.317 295.275 336.777 294.583 336.396 293.802C336.014 293.022 335.798 292.171 335.763 291.303C335.728 290.435 335.873 289.569 336.19 288.76C337.294 286.314 338.954 284.159 341.037 282.466C343.12 280.774 345.569 279.59 348.19 279.01C353.902 278.946 359.559 280.137 364.76 282.5C365.697 282.851 366.534 283.428 367.196 284.178C367.859 284.929 368.327 285.831 368.559 286.805C368.791 287.779 368.78 288.794 368.528 289.763C368.275 290.732 367.788 291.624 367.11 292.36C364.23 295.768 360.506 298.361 356.31 299.88Z" fill="url(#paint6_linear)"/>
<path d="M280.16 199.47C280.16 199.47 278.86 186.42 278.55 182.47C278.24 178.52 279.69 170.88 275.63 168.47C274.041 169.609 272.283 170.489 270.42 171.08C268.49 171.39 261.61 161.95 256.92 171.08C252.23 180.21 253.68 188.35 256.29 191.33C259.058 195.542 261.403 200.017 263.29 204.69L280.16 199.47Z" fill="url(#paint7_linear)"/>
<path d="M367.56 502.88L366.63 506.06C366.63 506.06 370.54 514.15 379.08 507.37V502.57C377.368 503.66 375.392 504.264 373.363 504.319C371.334 504.373 369.328 503.876 367.56 502.88Z" fill="#3F3D56"/>
<path d="M352.92 274.19C354.149 274.472 355.261 275.129 356.1 276.07C357.518 277.888 359.03 279.63 360.63 281.29L354 279.41L352.92 274.19Z" fill="url(#paint8_linear)"/>
<path opacity="0.4" d="M304.69 76.04H22.87C14.8287 76.04 8.31 82.5588 8.31 90.6V326.56C8.31 334.601 14.8287 341.12 22.87 341.12H304.69C312.731 341.12 319.25 334.601 319.25 326.56V90.6C319.25 82.5588 312.731 76.04 304.69 76.04Z" fill="#68E1FD"/>
<path d="M212.25 164.19L154.34 190.97V127.75L158.34 121.03C181.75 122.03 205.98 137.47 216.25 157.47L212.25 164.19Z" fill="#3F3D56"/>
<path d="M312.93 375.79H14.73C11.1843 375.79 8.31 378.664 8.31 382.21V382.42C8.31 385.966 11.1843 388.84 14.73 388.84H312.93C316.476 388.84 319.35 385.966 319.35 382.42V382.21C319.35 378.664 316.476 375.79 312.93 375.79Z" fill="#68E1FD"/>
<path d="M216.28 202.73C216.28 219.76 209.515 236.092 197.473 248.133C185.432 260.175 169.1 266.94 152.07 266.94C135.04 266.94 118.708 260.175 106.667 248.133C94.6249 236.092 87.86 219.76 87.86 202.73C87.86 201.41 87.86 200.09 87.97 198.8C88.9692 215.122 96.1575 230.449 108.069 241.653C119.98 252.858 135.717 259.096 152.07 259.096C168.423 259.096 184.16 252.858 196.071 241.653C207.982 230.449 215.171 215.122 216.17 198.8C216.24 200.09 216.28 201.41 216.28 202.73Z" fill="#3F3D56"/>
<path d="M216.28 194.88C216.28 196.22 216.28 197.54 216.17 198.88C215.171 215.202 207.982 230.529 196.071 241.733C184.16 252.937 168.423 259.176 152.07 259.176C135.717 259.176 119.98 252.937 108.069 241.733C96.1575 230.529 88.9692 215.202 87.97 198.88C87.9 197.58 87.86 196.26 87.86 194.88C87.8653 177.854 94.6326 161.527 106.674 149.49C118.715 137.452 135.044 130.69 152.07 130.69V193.88L210 167.09C214.155 175.764 216.301 185.262 216.28 194.88Z" fill="#68E1FD"/>
<path d="M216.28 157.47L158.37 184.25V121.03C170.476 121.026 182.337 124.445 192.584 130.893C202.831 137.34 211.045 146.554 216.28 157.47Z" fill="#68E1FD"/>
<path opacity="0.45" d="M216.28 157.47L158.37 184.25V121.03C170.476 121.026 182.337 124.445 192.584 130.893C202.831 137.34 211.045 146.554 216.28 157.47Z" fill="#3F3D56"/>
</g>
<defs>
<linearGradient id="paint0_linear" x1="232.86" y1="420.68" x2="419.08" y2="426.22" gradientUnits="userSpaceOnUse">
<stop stop-color="#68E1FD" stop-opacity="0"/>
<stop offset="0.02" stop-color="#66DAF6" stop-opacity="0.04"/>
<stop offset="0.18" stop-color="#58A1BC" stop-opacity="0.39"/>
<stop offset="0.35" stop-color="#4D758F" stop-opacity="0.66"/>
<stop offset="0.53" stop-color="#45566F" stop-opacity="0.85"/>
<stop offset="0.73" stop-color="#40435C" stop-opacity="0.96"/>
<stop offset="0.99" stop-color="#3F3D56"/>
</linearGradient>
<linearGradient id="paint1_linear" x1="342.37" y1="201.7" x2="366.52" y2="201.7" gradientUnits="userSpaceOnUse">
<stop stop-color="#ECC4D7"/>
<stop offset="0.42" stop-color="#EFD4D1"/>
<stop offset="1" stop-color="#F2EAC9"/>
</linearGradient>
<linearGradient id="paint2_linear" x1="10680.3" y1="5125.71" x2="10532.1" y2="6588.17" gradientUnits="userSpaceOnUse">
<stop stop-color="#ECC4D7"/>
<stop offset="0.42" stop-color="#EFD4D1"/>
<stop offset="1" stop-color="#F2EAC9"/>
</linearGradient>
<linearGradient id="paint3_linear" x1="21469.3" y1="10839.7" x2="24092.3" y2="10839.7" gradientUnits="userSpaceOnUse">
<stop stop-color="#ECC4D7"/>
<stop offset="0.42" stop-color="#EFD4D1"/>
<stop offset="1" stop-color="#F2EAC9"/>
</linearGradient>
<linearGradient id="paint4_linear" x1="332.4" y1="525.31" x2="325.84" y2="503.7" gradientUnits="userSpaceOnUse">
<stop offset="0.36" stop-color="#00272E"/>
<stop offset="1" stop-color="#69B9EB" stop-opacity="0"/>
</linearGradient>
<linearGradient id="paint5_linear" x1="12709.4" y1="11352" x2="12489.7" y2="10851.9" gradientUnits="userSpaceOnUse">
<stop offset="0.36" stop-color="#00272E"/>
<stop offset="1" stop-color="#69B9EB" stop-opacity="0"/>
</linearGradient>
<linearGradient id="paint6_linear" x1="14437.9" y1="6323.67" x2="15524.2" y2="6323.67" gradientUnits="userSpaceOnUse">
<stop stop-color="#ECC4D7"/>
<stop offset="0.42" stop-color="#EFD4D1"/>
<stop offset="1" stop-color="#F2EAC9"/>
</linearGradient>
<linearGradient id="paint7_linear" x1="9350.33" y1="7161.02" x2="10042" y2="7161.02" gradientUnits="userSpaceOnUse">
<stop stop-color="#ECC4D7"/>
<stop offset="0.42" stop-color="#EFD4D1"/>
<stop offset="1" stop-color="#F2EAC9"/>
</linearGradient>
<linearGradient id="paint8_linear" x1="3783.25" y1="2247" x2="3842.69" y2="2247" gradientUnits="userSpaceOnUse">
<stop stop-color="#ECC4D7"/>
<stop offset="0.42" stop-color="#EFD4D1"/>
<stop offset="1" stop-color="#F2EAC9"/>
</linearGradient>
<clipPath id="clip0">
<rect width="585" height="595.61" fill="white"/>
</clipPath>
</defs>
</svg>
