<svg width="507" height="583" viewBox="0 0 507 583" fill="none" xmlns="http://www.w3.org/2000/svg">
<g clip-path="url(#clip0)">
<path opacity="0.25" d="M141.826 93.7048C127.621 114.757 123.467 142.904 103.914 159.116C91.6104 169.356 75.2374 172.916 60.9355 180.108C27.1664 197.064 6.23729 236.401 10.9518 273.861C13.0472 290.525 19.6987 306.628 19.4794 323.426C19.1261 347.684 4.55614 369.528 0.925841 393.53C-4.20288 427.528 13.1812 460.966 34.293 488.113C46.8041 504.191 61.7273 519.697 81.1458 525.902C97.1289 530.985 114.367 529.181 131.093 530.181C165.764 532.229 198.448 546.308 232.266 554.293C266.084 562.277 304.714 563.179 332.258 541.993C344.891 532.241 354.418 518.393 368.61 511.103C379.635 505.447 392.341 504.35 404.633 502.814C438.365 498.621 474.778 488.247 493.563 459.905C507.219 439.292 508.791 412.852 505.648 388.325C502.505 363.799 495.147 339.931 492.527 315.344C486.522 258.916 505.721 202.062 499.703 145.646C497.035 120.803 488.873 95.4601 470.746 78.2478C446.966 55.5988 411.455 51.4298 378.648 50.4668C339.896 49.3818 301.12 51.2835 262.405 53.1851C221.327 55.1965 167.359 55.8669 141.826 93.7048Z" fill="#68E1FD"/>
<path d="M162.95 247.372L166.202 229.355C166.202 229.355 167.238 225.028 164.582 224.04C161.926 223.053 148.319 220.773 148.319 220.773C148.319 220.773 145.456 221.566 145.626 223.516C145.797 225.467 140.461 258.965 140.461 258.965C140.461 258.965 140.571 259.977 142.179 260.952C143.787 261.927 155.896 263.085 155.896 263.085C155.896 263.085 159.331 261.683 159.672 260.952C160.014 260.22 162.95 247.372 162.95 247.372Z" fill="#68E1FD"/>
<path d="M162.95 247.372L166.202 229.355C166.202 229.355 167.238 225.028 164.582 224.04C161.926 223.053 148.319 220.773 148.319 220.773C148.319 220.773 145.456 221.566 145.626 223.516C145.797 225.467 140.461 258.965 140.461 258.965C140.461 258.965 140.571 259.977 142.179 260.952C143.787 261.927 155.896 263.085 155.896 263.085C155.896 263.085 159.331 261.683 159.672 260.952C160.014 260.22 162.95 247.372 162.95 247.372Z" fill="url(#paint0_linear)"/>
<path d="M78.0759 259.099C78.0759 259.099 50.0568 293.865 47.2427 323.145C44.4286 352.426 62.9578 382.194 62.9578 382.194H78.0759L74.6771 339.163L78.0759 259.099Z" fill="#68E1FD"/>
<path d="M78.0759 259.099C78.0759 259.099 50.0568 293.865 47.2427 323.145C44.4286 352.426 62.9578 382.194 62.9578 382.194H78.0759L74.6771 339.163L78.0759 259.099Z" fill="url(#paint1_linear)"/>
<path opacity="0.28" d="M65.8815 286.636C65.8815 286.636 50.5441 308.907 52.9561 335.677C55.3682 362.446 65.4551 373.466 65.4551 373.466L68.7321 364.53L65.8815 286.636Z" fill="url(#paint2_linear)"/>
<path d="M161.524 246.787L164.826 228.77C164.826 228.77 165.861 224.443 163.205 223.455C160.55 222.468 146.93 220.188 146.93 220.188C146.93 220.188 144.079 220.981 144.25 222.931C144.42 224.882 138.999 258.343 138.999 258.343C138.999 258.343 139.109 259.355 140.717 260.33C142.325 261.305 154.434 262.463 154.434 262.463C154.434 262.463 157.857 261.062 158.211 260.33C158.564 259.599 161.524 246.787 161.524 246.787Z" fill="#68E1FD"/>
<path d="M160.221 245.153L163.035 229.599C163.035 229.599 163.924 225.857 161.634 225.003C159.344 224.15 147.588 222.175 147.588 222.175C147.588 222.175 145.151 222.87 145.261 224.552C145.371 226.235 140.766 255.186 140.766 255.186C140.766 255.186 140.863 256.051 142.252 256.905C143.641 257.758 154.105 258.733 154.105 258.733C154.105 258.733 157.066 257.514 157.358 256.905C157.65 256.295 160.221 245.153 160.221 245.153Z" fill="url(#paint3_linear)"/>
<path d="M65.784 537.141C67.3433 545.065 66.9048 553.573 70.8518 560.619C74.5918 561.838 76.7846 556.511 77.1013 552.598L86.2745 439.024C87.042 429.528 78.2099 422.14 69.2194 427.943C60.972 433.258 63.2379 447.154 63.2623 455.285C63.3354 482.64 56.3306 489.039 65.784 537.141Z" fill="url(#paint4_linear)"/>
<path d="M98.7735 534.02C99.5776 541.334 100.442 548.904 103.646 555.597C104.085 556.535 104.694 557.535 105.705 557.754C107.606 558.144 108.629 555.621 108.873 553.707C113.072 520.809 115.333 487.693 115.646 454.529C115.646 447.959 115.573 440.95 111.991 435.464C108.41 429.979 96.398 426.139 91.4155 431.953C86.4329 437.768 91.4155 456.516 92.0611 463.501C93.9859 487.028 96.2234 510.534 98.7735 534.02Z" fill="url(#paint5_linear)"/>
<path d="M422.37 0H256.619C225.542 0 200.349 25.2089 200.349 56.3057V420.336C200.349 451.433 225.542 476.642 256.619 476.642H422.37C453.447 476.642 478.64 451.433 478.64 420.336V56.3057C478.64 25.2089 453.447 0 422.37 0Z" fill="#68E1FD"/>
<path d="M414.793 14.7743H265.938C238.037 14.7743 215.418 37.4072 215.418 65.3263V392.214C215.418 420.133 238.037 442.766 265.938 442.766H414.793C442.694 442.766 465.312 420.133 465.312 392.214V65.3263C465.312 37.4072 442.694 14.7743 414.793 14.7743Z" fill="url(#paint6_linear)"/>
<path opacity="0.25" d="M279.728 109.454C278.351 112.382 276.608 115.122 274.539 117.609C270.409 122.168 264.367 124.448 259.579 128.3C254.791 132.152 251.258 139.173 254.56 144.354C256.156 146.853 258.994 148.304 260.87 150.596C265.877 156.691 262.527 165.931 264.147 173.671C266.023 182.558 274.892 188.86 283.931 189.518C292.97 190.177 301.863 186.129 308.783 180.266C311.216 177.97 313.787 175.824 316.482 173.842C319.223 172.05 322.317 170.843 325.01 169.039C328.043 166.987 330.544 164.242 332.307 161.03C334.069 157.819 335.042 154.234 335.145 150.571C335.231 146.475 334.195 142.453 333.927 138.381C333.44 132.286 334.524 126.191 333.805 120.096C333.086 114.001 329.931 107.614 324.133 105.724C321.879 104.98 319.442 105.005 317.14 104.432C312.194 103.213 308.405 99.3243 304.141 96.5084C290.473 87.4634 285.32 98.7879 279.728 109.454Z" fill="#68E1FD"/>
<path opacity="0.25" d="M432.104 171.794C431.012 168.747 430.316 165.572 430.033 162.347C429.752 156.252 432.469 150.327 433.103 144.22C433.736 138.113 431.324 130.64 425.33 129.3C422.431 128.653 419.41 129.629 416.462 129.3C408.58 128.495 404.474 119.548 397.859 115.257C390.27 110.283 379.586 112.075 372.654 117.975C365.723 123.875 362.336 133.042 361.569 142.087C361.462 145.43 361.153 148.764 360.643 152.07C359.973 155.276 358.62 158.3 357.963 161.518C357.256 165.112 357.416 168.823 358.431 172.343C359.446 175.862 361.286 179.088 363.798 181.753C366.624 184.715 370.194 186.849 373.312 189.506C377.941 193.48 381.511 198.6 386.298 202.391C391.086 206.182 397.847 208.486 403.28 205.743C405.4 204.67 407.106 202.939 409.152 201.72C413.538 199.112 418.898 199.173 423.954 198.161C439.998 194.955 435.661 183.265 432.104 171.794Z" fill="#68E1FD"/>
<path opacity="0.25" d="M313.327 380.243C313.882 376.852 314.868 373.546 316.263 370.406C319.162 364.567 324.656 360.471 328.445 355.156C332.234 349.841 333.781 341.65 328.896 337.322C326.545 335.226 323.231 334.58 320.648 332.775C313.753 327.985 314.557 317.611 310.61 310.175C306.127 301.642 295.236 297.802 285.819 299.728C276.403 301.654 268.484 308.322 263.136 316.368C261.315 319.417 259.309 322.352 257.13 325.157C254.864 327.79 252.05 329.911 249.821 332.544C247.319 335.519 245.561 339.048 244.692 342.838C243.824 346.628 243.87 350.571 244.826 354.34C245.935 358.533 248.152 362.348 249.699 366.42C251.953 372.515 252.635 379.085 255.12 385.058C257.605 391.032 262.698 396.675 269.166 396.919C271.688 397.017 274.161 396.285 276.671 396.2C282.092 396.042 287.074 398.882 292.239 400.515C308.746 405.842 310.72 392.726 313.327 380.243Z" fill="#68E1FD"/>
<path opacity="0.25" d="M305.53 275.75C306.108 273.001 307.037 270.338 308.296 267.827C310.878 263.146 315.52 260.001 318.809 255.783C322.098 251.565 323.682 244.934 319.832 241.155C317.981 239.351 315.3 238.717 313.254 237.132C307.784 232.951 308.783 224.504 305.859 218.275C302.509 211.143 293.738 207.584 285.966 208.815C278.193 210.046 271.481 215.276 266.803 221.627C265.204 224.051 263.458 226.375 261.577 228.587C259.628 230.66 257.24 232.244 255.303 234.365C253.149 236.707 251.583 239.528 250.735 242.595C249.888 245.663 249.783 248.888 250.43 252.004C251.185 255.491 252.867 258.684 253.951 262.073C255.571 267.12 255.888 272.544 257.715 277.53C259.542 282.516 263.477 287.282 268.764 287.733C270.823 287.904 272.87 287.404 274.929 287.428C279.363 287.502 283.346 290.001 287.513 291.537C300.84 296.51 302.935 285.893 305.53 275.75Z" fill="#68E1FD"/>
<path opacity="0.25" d="M356.72 242.033C356.625 244.955 356.15 247.852 355.307 250.651C353.431 256.003 349.009 260.403 346.28 265.511C343.551 270.618 343.173 277.615 348.083 280.139C350.458 281.358 353.504 281.272 356.05 282.248C362.823 284.82 363.359 293.45 367.855 298.765C372.935 304.86 383.168 305.872 391.391 302.422C399.614 298.972 405.839 291.939 409.664 284.344C410.935 281.478 412.366 278.686 413.952 275.982C415.658 273.386 417.923 271.106 419.617 268.497C421.458 265.783 422.586 262.647 422.894 259.38C423.203 256.114 422.683 252.822 421.383 249.81C419.873 246.592 417.412 243.898 415.536 240.875C412.758 236.352 411.333 231.123 408.36 226.686C405.388 222.248 400.125 218.677 394.29 219.737C392.024 220.152 389.892 221.237 387.651 221.797C382.778 223.016 377.99 221.651 373.154 221.322C357.658 220.225 357.5 231.293 356.72 242.033Z" fill="#68E1FD"/>
<path opacity="0.25" d="M413.928 395.249C414.572 391.973 415.636 388.793 417.095 385.79C420.092 380.207 425.562 376.416 429.387 371.369C433.212 366.322 435.003 358.423 430.41 354.071C428.181 351.962 424.989 351.231 422.541 349.39C415.999 344.514 417.071 334.47 413.514 327.131C409.433 318.72 398.98 314.624 389.77 316.16C380.561 317.696 372.715 324.023 367.233 331.617C365.365 334.511 363.331 337.295 361.142 339.955C358.852 342.393 356.05 344.405 353.772 346.891C351.247 349.7 349.428 353.07 348.464 356.723C347.5 360.375 347.419 364.205 348.229 367.895C349.167 372.003 351.201 375.782 352.542 379.78C354.552 385.753 354.978 392.165 357.219 398.065C359.461 403.965 364.212 409.585 370.486 410.024C372.922 410.194 375.359 409.573 377.795 409.573C383.058 409.573 387.809 412.498 392.767 414.266C408.665 419.922 410.992 407.305 413.928 395.249Z" fill="#68E1FD"/>
<path d="M324.656 125.764L325.728 128.117C325.728 128.117 324.279 132.359 322.074 132.92C319.869 133.481 319.637 133.091 319.637 133.091L318.992 132.14C320.457 131.751 321.775 130.939 322.783 129.805C323.79 128.671 324.442 127.266 324.656 125.764Z" fill="url(#paint7_linear)"/>
<path d="M291.435 108.772C292.833 109.163 294.306 109.205 295.724 108.893C297.87 108.582 300.048 108.541 302.205 108.772C302.205 108.772 299.5 113.209 294.81 112.124C290.12 111.039 291.435 108.772 291.435 108.772Z" fill="#68E1FD"/>
<path d="M291.435 108.772C292.833 109.163 294.306 109.205 295.724 108.893C297.87 108.582 300.048 108.541 302.205 108.772C302.205 108.772 299.5 113.209 294.81 112.124C290.12 111.039 291.435 108.772 291.435 108.772Z" fill="url(#paint8_linear)"/>
<path d="M296.674 228.502C296.674 228.502 298.038 236.742 301.352 238.803C304.665 240.863 310.72 244.898 310.72 244.898L293.957 246.153L296.674 228.502Z" fill="#68E1FD"/>
<path d="M296.674 228.502C296.674 228.502 298.038 236.742 301.352 238.803C304.665 240.863 310.72 244.898 310.72 244.898L293.957 246.153L296.674 228.502Z" fill="url(#paint9_linear)"/>
<path d="M275.27 225.296C275.27 225.296 273.917 237.193 280.545 236.742C287.172 236.291 291.253 227.6 291.253 227.6L297.807 241.436L293.458 251.846L268.082 255.905L263.282 246.153L275.27 225.296Z" fill="#68E1FD"/>
<path d="M275.27 225.296C275.27 225.296 273.917 237.193 280.545 236.742C287.172 236.291 291.253 227.6 291.253 227.6L297.807 241.436L293.458 251.846L268.082 255.905L263.282 246.153L275.27 225.296Z" fill="url(#paint10_linear)"/>
<path d="M405.851 328.923C412.807 331.118 409.372 339.894 409.372 339.894L377.101 329.899C377.101 329.899 388.698 323.499 405.851 328.923Z" fill="#68E1FD"/>
<path d="M405.851 328.923C412.807 331.118 409.372 339.894 409.372 339.894L377.101 329.899C377.101 329.899 388.698 323.499 405.851 328.923Z" fill="url(#paint11_linear)"/>
<path d="M377.101 329.899L374.945 316.551C374.913 316.267 374.991 315.983 375.164 315.756C375.336 315.529 375.589 315.377 375.87 315.332C376.015 315.305 376.163 315.308 376.306 315.341C376.449 315.373 376.584 315.433 376.703 315.518C376.822 315.604 376.923 315.712 377 315.837C377.077 315.962 377.128 316.101 377.15 316.246L379.294 329.655C379.311 329.799 379.299 329.945 379.259 330.085C379.219 330.224 379.152 330.355 379.061 330.468C378.97 330.581 378.858 330.676 378.731 330.745C378.603 330.815 378.463 330.859 378.319 330.874C378.175 330.891 378.029 330.879 377.889 330.839C377.75 330.799 377.62 330.732 377.506 330.641C377.393 330.55 377.299 330.438 377.229 330.31C377.16 330.183 377.116 330.043 377.101 329.899Z" fill="#68E1FD"/>
<path d="M397.823 330.337L399.943 317.001C399.99 316.709 400.152 316.448 400.391 316.275C400.631 316.101 400.929 316.029 401.222 316.075C401.514 316.123 401.775 316.284 401.948 316.524C402.122 316.764 402.193 317.063 402.148 317.355L400.003 330.691C399.98 330.841 399.927 330.985 399.846 331.114C399.765 331.243 399.658 331.354 399.532 331.44C399.406 331.525 399.264 331.584 399.115 331.613C398.966 331.641 398.812 331.639 398.663 331.605C398.39 331.538 398.151 331.371 397.995 331.136C397.84 330.901 397.778 330.616 397.823 330.337Z" fill="#68E1FD"/>
<path d="M274.198 311.772C276.096 310.202 278.312 309.063 280.692 308.431C283.073 307.8 285.562 307.692 287.988 308.115C296.515 309.492 297.868 312.991 297.868 312.991L291.63 314.807C291.63 314.807 281.397 311.15 277.804 316.587L274.198 311.772Z" fill="#68E1FD"/>
<path d="M274.198 311.772C276.096 310.202 278.312 309.063 280.692 308.431C283.073 307.8 285.562 307.692 287.988 308.115C296.515 309.492 297.868 312.991 297.868 312.991L291.63 314.807C291.63 314.807 281.397 311.15 277.804 316.587L274.198 311.772Z" fill="url(#paint12_linear)"/>
<path d="M294.871 314.417C296.168 336.275 298.898 358.024 303.045 379.524C303.715 383.023 303.934 387.582 300.743 389.13C299.408 389.638 297.962 389.785 296.552 389.557C290.656 389.118 284.15 388.399 280.155 384.022C277.365 380.975 276.39 376.708 275.647 372.637C273.11 358.701 272.118 344.528 272.687 330.374C272.882 325.498 273.004 317.148 277.73 314.027C279.887 312.613 294.761 312.589 294.871 314.417Z" fill="#68E1FD"/>
<path d="M294.871 314.417C296.168 336.275 298.898 358.024 303.045 379.524C303.715 383.023 303.934 387.582 300.743 389.13C299.408 389.638 297.962 389.785 296.552 389.557C290.656 389.118 284.15 388.399 280.155 384.022C277.365 380.975 276.39 376.708 275.647 372.637C273.11 358.701 272.118 344.528 272.687 330.374C272.882 325.498 273.004 317.148 277.73 314.027C279.887 312.613 294.761 312.589 294.871 314.417Z" fill="url(#paint13_linear)"/>
<path d="M120.19 213.935C119.958 218.677 119.081 238.315 115.39 241.35C111.955 244.13 106.119 242.728 103.464 246.226C101.027 249.518 100.832 254.43 100.211 258.489C99.9552 260.196 96.2518 256.527 94.8874 257.575C92.4509 259.452 83.1437 261.964 83.6554 258.953C84.4075 255.088 84.5145 251.125 83.9721 247.226L81.5356 230.952C80.4392 223.504 79.3307 215.946 80.3174 208.474C81.3042 201.001 84.6056 193.529 90.7576 189.189C99.2851 183.094 107.045 188.165 112.332 195.723C117.12 202.549 120.555 206.109 120.19 213.935Z" fill="url(#paint14_linear)"/>
<path d="M78.7946 176.975C71.1077 181.412 67.2824 190.457 65.7718 199.209C64.2612 207.962 64.5536 216.982 62.5557 225.625C60.5579 234.268 55.5753 242.996 47.2427 246.068C52.2008 248.506 57.2077 250.944 62.5923 252.029C67.9768 253.114 73.8487 252.931 78.6241 250.212L77.9175 253.54C83.5701 253.223 89.4663 252.845 94.327 249.944C100.747 246.104 104.073 238.668 105.912 231.428C109.25 218.348 109.08 204.61 108.751 191.2C108.829 188.535 108.45 185.875 107.63 183.338C103.707 173.281 86.7618 172.367 78.7946 176.975Z" fill="#25233A"/>
<path d="M121.384 181.119C122.863 182.009 124.085 183.27 124.929 184.776C125.63 186.412 126.014 188.166 126.062 189.945C126.425 192.829 126.466 195.744 126.184 198.636C125.886 201.55 124.621 204.28 122.59 206.389C120.655 208.024 118.421 209.266 116.011 210.046L116.913 205.816L112.04 210.205C111.925 209.078 112.191 207.945 112.795 206.987L108.154 209.205C108.813 204.519 108.883 199.768 108.361 195.065C107.874 190.615 105.656 189.921 102.794 187.117C100.248 184.679 99.8943 182.741 102.952 180.644C108.227 177.048 116.279 177.95 121.384 181.119Z" fill="#25233A"/>
<path d="M104.974 259.245C107.167 260.781 109.116 262.658 111.309 264.206C112.735 265.022 113.979 266.121 114.964 267.437C116.738 272.335 118.127 277.365 119.118 282.479C119.227 287.355 115.95 281.931 115.89 286.831L114.903 353.279C114.903 356.022 114.793 358.874 113.502 361.276C111.285 365.42 106.193 367.005 101.636 367.931C95.5168 369.161 89.3081 369.895 83.0706 370.126C80.2897 370.362 77.4889 370.102 74.7989 369.358C69.926 367.773 66.3932 363.421 64.5536 358.655C62.7141 353.889 62.3365 348.708 62.1172 343.612C60.899 318.793 61.7517 293.243 71.1199 270.228C73.2761 264.914 77.4668 257.782 83.1559 255.6C90.0145 252.943 99.1634 255.186 104.974 259.245Z" fill="#68E1FD"/>
<path d="M105.961 286.636C105.961 286.636 102.526 287.453 101.381 301.41C100.235 315.368 108.008 365.371 97.2629 367.712C97.2629 367.712 107.301 368.772 111.541 363.811C115.78 358.85 115.195 333.226 115.195 333.226V284.466L105.961 286.636Z" fill="url(#paint15_linear)"/>
<path d="M136.234 432.417C129.875 409.256 120.799 384.778 112.454 362.263C112.494 362.368 112.504 362.481 112.482 362.591C112.461 362.701 112.409 362.803 112.332 362.885C111.272 364.274 105.157 365.323 101.015 366.31H100.832L100.114 366.481C87.6877 369.553 80.9509 368.504 68.5982 365.164C60.899 385.753 53.7967 407.391 46.0976 427.979C45.7797 428.629 45.6773 429.364 45.8052 430.076C46.0745 430.692 46.5249 431.211 47.0965 431.563L53.078 436.183C53.6505 434.477 54.2962 432.758 54.82 431.051C54.5399 436.11 51.409 444.131 51.1654 449.19L51.275 449.288C51.7997 449.77 52.4361 450.113 53.1267 450.287C57.0372 451.36 63.4816 448.654 66.9657 450.287C71.132 452.25 76.7968 453.164 79.7814 449.666C78.8921 452.445 78.9165 456.65 81.8159 457.04C83.1321 457.03 84.4114 456.604 85.4705 455.821C91.1596 452.701 98.067 453.481 104.56 453.383C110.432 453.323 117.047 451.957 120.519 447.471C120.54 448.162 120.778 448.829 121.2 449.377C121.623 449.924 122.207 450.324 122.87 450.519C124.929 450.958 126.939 449.763 128.791 448.727C129.355 448.405 129.941 448.124 130.545 447.886C131.429 447.51 132.172 446.864 132.668 446.042C133.165 445.219 133.389 444.26 133.31 443.302C133.286 442.945 133.286 442.587 133.31 442.23C133.588 442.644 133.989 442.96 134.457 443.132C134.924 443.305 135.435 443.325 135.914 443.189C136.394 443.054 136.819 442.771 137.128 442.379C137.437 441.988 137.614 441.509 137.635 441.011C137.597 438.092 137.125 435.196 136.234 432.417ZM121.42 445.911C121.106 446.073 120.851 446.328 120.689 446.642C120.373 446.252 121.03 445.57 121.42 445.911ZM120.994 446.789C121.175 446.528 121.338 446.255 121.481 445.972C121.761 446.289 121.359 446.776 120.97 446.789H120.994Z" fill="#68E1FD"/>
<path d="M136.234 432.417C129.875 409.256 120.799 384.778 112.454 362.263C112.469 362.477 112.427 362.692 112.332 362.885C111.407 364.933 105.303 365.408 101.015 366.31H100.832L100.114 366.481C87.6877 369.553 81.0849 367.846 68.7322 364.506C61.033 385.119 53.7967 407.427 46.0976 428.016C45.7797 428.666 45.6773 429.401 45.8052 430.113C46.0745 430.728 46.5249 431.247 47.0965 431.6L53.078 436.22C53.6505 434.513 54.2962 432.795 54.82 431.088C54.5399 436.147 51.409 444.168 51.1654 449.227L51.275 449.324C51.848 449.734 52.4701 450.07 53.1267 450.324C57.0372 451.396 63.4816 448.69 66.9657 450.324C71.2539 449.275 76.3582 452.896 79.416 450.092C79.5509 449.976 79.6771 449.849 79.7936 449.714C78.9043 452.494 78.9287 456.699 81.828 457.089C83.1443 457.079 84.4236 456.652 85.4827 455.87C91.1718 452.75 98.0791 453.53 104.572 453.432C110.444 453.371 117.059 452.006 120.531 447.52C120.552 448.211 120.79 448.878 121.213 449.425C121.635 449.973 122.219 450.373 122.882 450.568C124.941 451.006 126.951 449.812 128.803 448.776C129.367 448.454 129.953 448.173 130.557 447.935C131.423 447.615 132.162 447.023 132.663 446.247C133.164 445.471 133.399 444.553 133.335 443.631C133.304 443.181 133.304 442.729 133.335 442.278C133.612 442.693 134.013 443.009 134.481 443.181C134.949 443.353 135.459 443.373 135.939 443.238C136.418 443.103 136.843 442.819 137.152 442.428C137.461 442.037 137.639 441.558 137.659 441.059C137.618 438.123 137.138 435.21 136.234 432.417Z" fill="url(#paint16_linear)"/>
<path d="M68.5859 544.638C67.051 544.638 65.1627 544.638 64.4074 545.979C64.0981 546.705 64.005 547.505 64.1394 548.283L65.1993 562.143C65.3455 564.069 65.6013 566.214 67.0754 567.446C68.0009 568.129 69.1172 568.504 70.2671 568.518C72.8787 568.541 75.4614 567.97 77.8201 566.848C78.8476 566.518 79.7491 565.879 80.4027 565.02C80.8746 564.048 81.0484 562.958 80.9022 561.887C80.7804 558.23 80.5854 554.512 80.354 550.831C80.2078 548.49 80.354 544.065 77.6373 543.407C75.274 542.846 71.2417 544.662 68.5859 544.638Z" fill="#68E1FD"/>
<path d="M97.7136 546.271C96.9185 552.293 97.2448 558.41 98.676 564.313C98.8018 565.007 99.0806 565.665 99.4922 566.239C99.9736 566.7 100.551 567.048 101.183 567.259C101.815 567.469 102.486 567.537 103.147 567.458C106.001 567.405 108.82 566.813 111.455 565.715C111.922 565.565 112.342 565.296 112.673 564.934C113.019 564.338 113.144 563.639 113.027 562.96L112.442 553.342C112.296 551.062 112.795 547.369 111.346 545.418C110.127 543.773 108.373 543.87 106.473 544.126C105.656 544.285 97.8233 545.869 97.7136 546.271Z" fill="#68E1FD"/>
<path d="M68.5859 544.638C67.051 544.638 65.1627 544.638 64.4074 545.979C64.0981 546.705 64.005 547.505 64.1394 548.283L65.1993 562.143C65.3455 564.069 65.6013 566.214 67.0754 567.446C68.0009 568.129 69.1172 568.504 70.2671 568.518C72.8787 568.541 75.4614 567.97 77.8201 566.848C78.8476 566.518 79.7491 565.879 80.4027 565.02C80.8746 564.048 81.0484 562.958 80.9022 561.887C80.7804 558.23 80.5854 554.512 80.354 550.831C80.2078 548.49 80.354 544.065 77.6373 543.407C75.274 542.846 71.2417 544.662 68.5859 544.638Z" fill="url(#paint17_linear)"/>
<path d="M97.7136 546.271C96.9185 552.293 97.2448 558.41 98.676 564.313C98.8018 565.007 99.0806 565.665 99.4922 566.239C99.9736 566.7 100.551 567.048 101.183 567.259C101.815 567.469 102.486 567.537 103.147 567.458C106.001 567.405 108.82 566.813 111.455 565.715C111.922 565.565 112.342 565.296 112.673 564.934C113.019 564.338 113.144 563.639 113.027 562.96L112.442 553.342C112.296 551.062 112.795 547.369 111.346 545.418C110.127 543.773 108.373 543.87 106.473 544.126C105.656 544.285 97.8233 545.869 97.7136 546.271Z" fill="url(#paint18_linear)"/>
<path d="M64.6876 580.72C64.7838 581.151 65.0091 581.543 65.3333 581.842C65.6278 582.029 65.9612 582.146 66.3079 582.183C74.6744 583.691 83.2841 583.101 91.3667 580.464C94.3757 579.477 97.7746 577.575 97.8964 574.369C97.8117 572.687 97.149 571.085 96.0203 569.835C92.8693 565.873 88.4513 563.119 83.5092 562.033C82.6062 561.76 81.6583 561.668 80.7197 561.762C79.7811 561.857 78.8703 562.135 78.0394 562.582C77.2353 563.118 76.6384 563.923 75.8587 564.496C72.8376 566.751 67.6236 564.715 65.0409 567.409C62.4583 570.103 63.6156 577.441 64.6876 580.72Z" fill="#25233A"/>
<path d="M96.6051 578.148C96.6575 579.444 97.1276 580.689 97.9451 581.696C99.1099 582.598 100.57 583.033 102.038 582.915C110.549 583.204 119.033 581.821 127.012 578.843C129.051 578.206 130.932 577.142 132.53 575.722C133.323 575.004 133.912 574.09 134.239 573.071C134.566 572.053 134.62 570.966 134.394 569.92C133.688 567.421 131.081 566.019 128.693 564.971C125.972 563.76 123.211 562.643 120.409 561.619C118.891 560.949 117.256 560.589 115.597 560.558C112.454 560.704 110.066 562.996 107.216 563.959C104.365 564.922 102.343 564.154 99.541 564.093C93.4621 563.983 96.1056 574.138 96.6051 578.148Z" fill="#25233A"/>
<path d="M274.466 235.255C274.368 237.827 274.393 240.594 275.818 242.752C278.12 246.226 283.529 246.616 286.94 244.227C290.351 241.838 291.911 237.425 291.911 233.256C291.911 229.087 290.595 225.028 289.279 221.066L296.199 220.42C296.331 226.186 296.885 231.935 297.856 237.62C298.028 239.398 298.635 241.106 299.622 242.594C302.058 245.726 306.785 245.458 310.72 244.885L309.721 286.173L259.64 286.344L255.985 255.808C255.75 254.711 255.826 253.571 256.204 252.516C256.888 251.436 257.83 250.544 258.945 249.92C263.045 246.732 265.94 242.244 267.156 237.193C267.944 232.706 268.4 228.168 268.521 223.614C269.605 222.492 272.09 222.712 275.404 222.614C275.282 226.795 274.661 231.025 274.466 235.255Z" fill="#68E1FD"/>
<path d="M274.466 235.255C274.368 237.827 274.393 240.594 275.818 242.752C278.12 246.226 283.529 246.616 286.94 244.227C290.351 241.838 291.911 237.425 291.911 233.256C291.911 229.087 290.595 225.028 289.279 221.066L296.199 220.42C296.331 226.186 296.885 231.935 297.856 237.62C298.028 239.398 298.635 241.106 299.622 242.594C302.058 245.726 306.785 245.458 310.72 244.885L309.721 286.173L259.64 286.344L255.985 255.808C255.75 254.711 255.826 253.571 256.204 252.516C256.888 251.436 257.83 250.544 258.945 249.92C263.045 246.732 265.94 242.244 267.156 237.193C267.944 232.706 268.4 228.168 268.521 223.614C269.605 222.492 272.09 222.712 275.404 222.614C275.282 226.795 274.661 231.025 274.466 235.255Z" fill="url(#paint19_linear)"/>
<path d="M367.501 339.2C366.819 345.295 371.631 350.402 373.592 356.168C375.324 361.799 374.836 367.879 372.228 373.161C369.626 378.398 365.879 382.981 361.264 386.57C360.96 386.747 360.695 386.985 360.486 387.268C360.276 387.551 360.127 387.873 360.046 388.216C360.047 388.644 360.16 389.064 360.375 389.435C364.029 396.749 372.033 400.991 380.073 402.21C388.114 403.429 396.3 402.064 404.304 400.637C410.249 399.577 416.644 398.199 420.652 393.713C411.735 381.779 403.829 367.273 406.716 352.657C407.556 348.403 409.299 344.295 409.323 339.968C409.42 327.034 397.75 332.154 389.831 329.996C381.913 327.839 368.72 328.411 367.501 339.2Z" fill="#68E1FD"/>
<path d="M267.01 316.355C263.648 319.793 261.613 324.279 259.774 328.728C253.254 344.444 248.249 360.747 244.826 377.415L258.726 381.072C259.457 381.358 260.26 381.4 261.016 381.194C262.356 380.67 262.649 378.939 262.734 377.537L264.269 351.414L264.415 383.986C264.283 384.816 264.458 385.666 264.906 386.377C265.354 387.088 266.046 387.612 266.852 387.85C271.725 390.398 276.78 393.006 282.25 392.909C282.603 392.909 280.873 346.587 280.679 342.357C280.264 333.824 280.033 325.291 279.217 316.831C278.474 308.737 271.542 311.748 267.01 316.355Z" fill="#68E1FD"/>
<path d="M267.01 316.355C263.648 319.793 261.613 324.279 259.774 328.728C253.254 344.444 248.249 360.747 244.826 377.415L258.726 381.072C259.457 381.358 260.26 381.4 261.016 381.194C262.356 380.67 262.649 378.939 262.734 377.537L264.269 351.414L264.415 383.986C264.283 384.816 264.458 385.666 264.906 386.377C265.354 387.088 266.046 387.612 266.852 387.85C271.725 390.398 276.78 393.006 282.25 392.909C282.603 392.909 280.873 346.587 280.679 342.357C280.264 333.824 280.033 325.291 279.217 316.831C278.474 308.737 271.542 311.748 267.01 316.355Z" fill="url(#paint20_linear)"/>
<path d="M296.54 394.932C303.074 392.497 309.189 389.059 314.667 384.741C315.333 384.368 315.843 383.767 316.105 383.049C316.366 382.331 316.362 381.543 316.092 380.828L311.122 350.158C313.035 360.268 315.495 370.267 318.492 380.109L333.026 374.148C331.807 364.226 328.214 354.766 324.437 345.514C321.148 337.493 317.664 329.374 312.023 322.792C308.539 318.72 299.135 309.7 293.141 313.405C287.403 316.953 289.693 331.191 289.827 336.798C289.949 341.918 296.796 394.871 296.54 394.932Z" fill="#68E1FD"/>
<path d="M296.54 394.932C303.074 392.497 309.189 389.059 314.667 384.741C315.333 384.368 315.843 383.767 316.105 383.049C316.366 382.331 316.362 381.543 316.092 380.828L311.122 350.158C313.035 360.268 315.495 370.267 318.492 380.109L333.026 374.148C331.807 364.226 328.214 354.766 324.437 345.514C321.148 337.493 317.664 329.374 312.023 322.792C308.539 318.72 299.135 309.7 293.141 313.405C287.403 316.953 289.693 331.191 289.827 336.798C289.949 341.918 296.796 394.871 296.54 394.932Z" fill="url(#paint21_linear)"/>
<path d="M325.546 184.13C325.445 184.112 325.342 184.112 325.241 184.13C324.601 184.227 324.011 184.531 323.56 184.996L323 185.41C320.622 187.013 317.784 187.789 314.923 187.62C312.061 187.45 309.334 186.344 307.163 184.472C306.76 185.749 305.988 186.879 304.945 187.719C303.901 188.559 302.633 189.071 301.299 189.191C299.965 189.311 298.626 189.033 297.449 188.393C296.273 187.753 295.312 186.779 294.688 185.593C293.752 187.162 292.248 188.311 290.488 188.801C288.728 189.292 286.847 189.086 285.235 188.226C284.493 187.628 283.606 187.237 282.664 187.092C281.604 187.092 280.788 187.982 279.923 188.604C279.042 189.15 278.052 189.496 277.023 189.618C275.994 189.74 274.951 189.636 273.966 189.312C272.982 188.987 272.08 188.452 271.325 187.742C270.569 187.032 269.978 186.166 269.593 185.203C267.887 187.495 264.586 187.958 261.772 187.434C259.773 186.961 257.801 186.383 255.863 185.703C255.092 185.461 254.307 185.265 253.512 185.118C259.274 174 268.131 163.358 273.004 151.924C274.612 148.072 276.658 146.049 277.426 141.965C277.889 139.527 275.05 131.603 275.635 128.288C275.653 128.021 275.732 127.761 275.865 127.529C275.998 127.297 276.182 127.098 276.403 126.947C273.966 128.288 271.53 128.495 269.252 129.86C269.252 129.86 263.234 123.302 263.538 120.511C268.716 117.829 273.491 113.867 278.656 111.185C279.594 110.698 288.975 108.747 290.899 109.564C293.969 110.929 296.004 111.344 299.208 110.332C300.702 109.946 302.247 109.79 303.788 109.869C306.615 109.869 315.02 111.819 319.918 117.658C321.319 119.34 324.79 123.985 324.79 126.191C324.79 128.397 321.209 132.408 319.04 132.115C317.298 130.372 314.094 128.848 312.206 127.239C311.159 134.029 310.781 136.443 309.77 143.221C309.476 144.566 309.419 145.951 309.599 147.316C309.809 148.239 310.124 149.135 310.537 149.986C315.499 161.38 320.502 172.761 325.546 184.13Z" fill="#68E1FD"/>
<path d="M326.179 185.203C326.163 185.262 326.134 185.316 326.094 185.361L326.033 185.227L325.546 184.13C326.009 184.301 326.362 184.801 326.179 185.203Z" fill="#68E1FD"/>
<path d="M108.203 268.095C111.857 267.278 114.891 265.511 116.158 269.058C118.241 274.873 122.529 287.94 126.391 294.096C130.045 299.887 134.09 305.372 136.733 308.785C137.027 309.165 137.412 309.462 137.854 309.649C138.295 309.835 138.777 309.905 139.254 309.851C139.73 309.797 140.184 309.622 140.573 309.341C140.961 309.06 141.271 308.684 141.472 308.249L146.43 289.562L162.548 314.966C162.548 314.966 150.207 341.784 142.654 342.759C129.972 344.478 106.984 301.313 106.984 301.313C106.984 301.313 87.6877 272.593 108.203 268.095Z" fill="#68E1FD"/>
<path d="M146.43 289.513L147.77 263.597L144.116 255.198C144.116 255.198 145.139 252.065 147.77 253.54C150.402 255.015 151.535 261.708 155.823 256.393C158.236 253.531 160.151 250.284 161.488 246.787C161.488 246.787 162.34 246.958 162.511 250.212C162.619 251.986 162.619 253.765 162.511 255.539L162.584 259.306C162.584 259.306 161.658 265.828 160.148 268.144C158.637 270.46 156.201 270.46 155.859 276.299C155.518 282.138 156.456 305.311 156.456 305.311L146.43 289.513Z" fill="url(#paint22_linear)"/>
<path d="M380.877 380.853C371.948 393.201 369.67 398.614 369.67 398.614L364.005 394.347C362.565 392.877 361.357 391.196 360.423 389.362C360.209 388.991 360.095 388.571 360.094 388.143C360.175 387.8 360.325 387.477 360.535 387.194C360.744 386.912 361.009 386.674 361.313 386.497C365.927 382.908 369.675 378.325 372.277 373.088C374.885 367.806 375.373 361.726 373.641 356.095C372.045 351.463 368.622 347.221 367.708 342.588C368.001 343.027 372.691 350.061 375.018 350.232C374.932 350.305 389.795 368.492 380.877 380.853Z" fill="url(#paint23_linear)"/>
<path d="M409.372 339.894C409.284 342.375 408.874 344.833 408.153 347.208C408.153 347.208 409.372 339.516 407.605 335.591C405.839 331.666 401.161 332.483 400.466 332.263C399.772 332.044 394.595 333.3 390.952 331.727C387.31 330.155 385.166 330.374 379.757 329.911C374.348 329.448 369.767 333.568 369.767 333.568C371.972 330.837 375.529 329.472 379.294 329.021C382.867 328.619 386.483 328.896 389.953 329.838C397.798 332.081 409.469 326.961 409.372 339.894Z" fill="url(#paint24_linear)"/>
<path d="M414.135 283.942H416.815C417.217 279.688 415.292 275.604 413.708 271.63C410.285 262.988 406.972 253.345 406.594 244.081C406.766 242.723 407.051 241.381 407.447 240.07C406.933 239.679 406.284 239.508 405.644 239.595C388.946 239.79 372.24 240.038 355.526 240.339C355.879 240.57 356.817 240.143 356.391 240.131C355.965 240.119 355.697 240.595 355.551 240.997C350.313 254.867 347.654 269.578 347.705 284.405C355.014 285.247 369.402 286.587 370.072 286.563C385.056 285.868 399.139 284.235 414.135 283.942Z" fill="#68E1FD"/>
<path d="M356.866 248.591C356.866 248.591 351.482 275.409 354.089 285.1L347.705 284.405C347.705 284.405 348.144 257.758 354.052 245.19L356.866 248.591Z" fill="url(#paint25_linear)"/>
<path d="M356.866 248.591L358.742 249.676C358.742 249.676 356.976 282.077 361.435 285.795L354.125 285.1C354.125 285.1 351.543 275.409 356.866 248.591Z" fill="url(#paint26_linear)"/>
<path d="M368.354 249.396C368.354 249.396 366.843 277.079 370.072 286.551L361.544 285.734C361.544 285.734 360.253 259.111 365.321 246.19L368.354 249.396Z" fill="url(#paint27_linear)"/>
<path d="M368.354 249.396L370.315 250.359C370.315 250.359 370.656 282.808 375.347 286.209L370.072 286.551C370.072 286.551 366.21 273.812 368.354 249.396Z" fill="url(#paint28_linear)"/>
<path d="M384.313 248.164C384.313 248.164 382.79 275.848 386.018 285.32L376.674 286.197C376.674 286.197 376.212 257.868 381.279 244.958L384.313 248.164Z" fill="url(#paint29_linear)"/>
<path d="M384.313 248.164L386.262 249.127C386.262 249.127 388.893 281.589 393.571 285.003L386.006 285.32C386.006 285.32 382.157 272.581 384.313 248.164Z" fill="url(#paint30_linear)"/>
<path d="M399.48 247.055C399.48 247.055 397.275 269.46 406.594 284.21L397.262 285.088C397.262 285.088 391.074 259.977 396.13 247.055H399.48Z" fill="url(#paint31_linear)"/>
<path d="M399.48 247.055L402.878 247.494C402.878 247.494 409.469 280.492 414.159 283.893L406.594 284.21C406.594 284.21 397.323 271.472 399.48 247.055Z" fill="url(#paint32_linear)"/>
<path d="M356.001 244.069C356.001 244.069 394.643 246.238 406.594 244.069L407.447 240.058L356.391 240.119L356.001 244.069Z" fill="url(#paint33_linear)"/>
<path d="M420.652 134.858C420.384 157.8 419.8 205.109 419.337 205.56C418.874 206.011 404.803 205.682 398.688 205.451C397.965 187.263 397.25 169.076 396.544 150.888C390.743 167.746 386.055 184.967 382.51 202.44C382.531 202.762 382.467 203.084 382.325 203.374C382.183 203.664 381.968 203.912 381.7 204.093C381.433 204.274 381.124 204.382 380.802 204.406C380.48 204.431 380.158 204.37 379.866 204.232C373.568 202.952 367.014 200.294 360.959 202.44C362.121 192.858 363.623 183.318 365.467 173.818C367.091 165.309 369.024 156.853 371.266 148.45C371.79 146.502 372.197 144.523 372.484 142.526C372.677 141.197 372.786 139.858 372.813 138.515C372.813 136.626 372.167 133.639 373.58 132.091C374.36 131.213 377.405 130.872 381.596 130.872C395.07 130.823 420.652 134.188 420.652 134.858Z" fill="#68E1FD"/>
<path d="M381.56 130.896V132.201C381.56 132.201 378.819 142.745 372.874 143.55L372.447 142.575C372.64 141.246 372.75 139.906 372.776 138.564C372.776 136.675 372.131 133.688 373.544 132.14C374.36 131.262 377.369 130.921 381.56 130.896Z" fill="url(#paint34_linear)"/>
<path d="M371.448 202.269L382.887 152.18L396.495 150.961C396.495 150.961 382.973 196.064 381.645 204.171L371.448 202.269Z" fill="url(#paint35_linear)"/>
<path d="M409.299 205.89L407.288 148.231H420.591L419.276 205.597L409.299 205.89Z" fill="url(#paint36_linear)"/>
<path d="M412.831 133.42C412.831 133.42 411.15 145.488 420.591 148.231V134.822L412.831 133.42Z" fill="url(#paint37_linear)"/>
<path d="M395.167 132.445C395.167 132.445 392.889 143.318 393.571 144.805C394.425 146.327 395.399 147.778 396.483 149.145L399.943 131.945L395.167 132.445Z" fill="url(#paint38_linear)"/>
<path d="M291.18 108.406C291.918 109.589 293.068 110.457 294.408 110.844C294.408 110.844 290.437 112.575 289.864 111.6C289.697 111.335 289.609 111.029 289.609 110.716C289.609 110.403 289.697 110.097 289.864 109.832C289.864 109.832 288.085 110.99 287.428 110.149C286.77 109.308 291.18 108.406 291.18 108.406Z" fill="#68E1FD"/>
<path d="M291.18 108.406C291.918 109.589 293.068 110.457 294.408 110.844C294.408 110.844 290.437 112.575 289.864 111.6C289.697 111.335 289.609 111.029 289.609 110.716C289.609 110.403 289.697 110.097 289.864 109.832C289.864 109.832 288.085 110.99 287.428 110.149C286.77 109.308 291.18 108.406 291.18 108.406Z" fill="url(#paint39_linear)"/>
<path d="M296.601 110.917C296.601 110.917 299.866 113.635 300.67 112.209C301.474 110.783 301.011 110.49 301.011 110.49C301.269 110.744 301.592 110.922 301.944 111.004C302.297 111.086 302.665 111.068 303.009 110.954C304.093 110.49 302.558 108.381 302.558 108.381C300.835 109.746 298.778 110.622 296.601 110.917Z" fill="url(#paint40_linear)"/>
<path d="M263.502 120.596L261.065 122.4C261.065 122.4 264.842 130.116 266.815 130.933L269.179 129.897C269.179 129.897 263.392 123.997 263.502 120.596Z" fill="url(#paint41_linear)"/>
<path d="M326.179 185.203H326.033C325.028 185.345 324.013 185.39 323 185.337C319.7 185.14 316.598 183.693 314.326 181.29C307.979 174.768 304.129 147.816 303.362 146.622C302.594 145.427 308.466 134.602 309.063 124.826L312.084 127.264C311.037 134.054 310.659 136.467 309.648 143.245C309.354 144.59 309.297 145.976 309.477 147.341C309.687 148.264 310.002 149.159 310.415 150.01C315.467 161.388 320.514 172.765 325.558 184.142C326.009 184.301 326.362 184.801 326.179 185.203Z" fill="url(#paint42_linear)"/>
<path d="M277.633 149.852L255.851 185.703C255.08 185.461 254.295 185.265 253.5 185.118C259.262 174 268.119 163.358 272.992 151.924C274.6 148.072 276.646 146.049 277.414 141.965C277.877 139.527 275.038 131.603 275.623 128.288L276.39 126.947C276.39 126.947 277.28 134.407 279.741 137.723C282.201 141.039 277.633 149.852 277.633 149.852Z" fill="url(#paint43_linear)"/>
<path d="M54.82 431.088L66.6855 380.463L47.0965 431.6L53.078 436.208L54.82 431.088Z" fill="url(#paint44_linear)"/>
<path d="M62.97 448.763L78.0759 382.194L75.0304 451.104L62.97 448.763Z" fill="url(#paint45_linear)"/>
<path opacity="0.41" d="M133.286 442.278L114.416 376.586L128.766 448.788C128.766 448.788 134.662 447.069 133.286 442.278Z" fill="url(#paint46_linear)"/>
<path opacity="0.41" d="M106.266 382.194C106.266 382.194 120.397 440.779 120.494 447.52C120.494 447.52 116.243 452.396 110.395 452.884L106.266 382.194Z" fill="url(#paint47_linear)"/>
<path d="M82.0595 254.442C82.0595 254.442 93.3768 251.407 101.149 254.442L105.035 260.379C105.035 260.379 87.7364 257.161 79.9763 259.16C72.2162 261.159 82.0595 254.442 82.0595 254.442Z" fill="#68E1FD"/>
<path d="M82.0595 254.442C82.0595 254.442 93.3768 251.407 101.149 254.442L105.035 260.379C105.035 260.379 87.7364 257.161 79.9763 259.16C72.2162 261.159 82.0595 254.442 82.0595 254.442Z" fill="url(#paint48_linear)"/>
<path d="M373.458 451.104H321.952C318.426 451.104 315.568 453.961 315.568 457.486C315.568 461.01 318.426 463.867 321.952 463.867H373.458C376.984 463.867 379.842 461.01 379.842 457.486C379.842 453.961 376.984 451.104 373.458 451.104Z" fill="#68E1FD"/>
<path d="M373.458 451.104H321.952C318.426 451.104 315.568 453.961 315.568 457.486C315.568 461.01 318.426 463.867 321.952 463.867H373.458C376.984 463.867 379.842 461.01 379.842 457.486C379.842 453.961 376.984 451.104 373.458 451.104Z" fill="url(#paint49_linear)"/>
<path d="M322.086 47.3338H317.103V45.7979C317.149 45.3337 317.082 44.8655 316.909 44.4326C316.838 44.3323 316.742 44.2523 316.631 44.2009C316.52 44.1496 316.397 44.1285 316.275 44.1401C316.128 44.1324 315.981 44.166 315.852 44.2371C315.723 44.3081 315.616 44.4139 315.544 44.5423C315.344 44.9156 315.255 45.3388 315.288 45.7613C315.26 46.2961 315.356 46.8302 315.568 47.3216C315.97 47.8448 316.493 48.263 317.091 48.5406C318.799 49.4143 320.328 50.601 321.599 52.0392C322.327 53.3855 322.653 54.9132 322.537 56.4398C322.58 57.5362 322.389 58.6291 321.976 59.6458C321.528 60.4356 320.829 61.0533 319.991 61.4011C318.909 61.8938 317.731 62.1355 316.543 62.1081C315.276 62.142 314.021 61.8614 312.888 61.2914C311.989 60.8763 311.279 60.136 310.903 59.2191C310.54 58.0606 310.379 56.8483 310.428 55.6352V54.3309H315.41V56.8421C315.368 57.347 315.438 57.8551 315.617 58.3292C315.701 58.4456 315.813 58.5382 315.944 58.598C316.074 58.6579 316.218 58.6828 316.36 58.6706C316.52 58.6785 316.679 58.643 316.821 58.5679C316.963 58.4928 317.081 58.3809 317.164 58.2439C317.354 57.8666 317.442 57.4465 317.42 57.0249C317.532 56.1792 317.356 55.3205 316.921 54.5869C316.15 53.8775 315.309 53.2485 314.411 52.7096C313.486 52.1311 312.602 51.4874 311.768 50.7836C311.289 50.3172 310.919 49.7512 310.683 49.1258C310.375 48.262 310.231 47.3485 310.257 46.4318C310.182 45.2418 310.391 44.0511 310.866 42.9576C311.315 42.1861 312.004 41.5825 312.827 41.2388C313.857 40.8083 314.965 40.6006 316.08 40.6293C317.304 40.5938 318.522 40.8224 319.65 41.2998C320.481 41.62 321.171 42.2247 321.599 43.0064C321.984 44.1261 322.145 45.3107 322.074 46.4927L322.086 47.3338Z" fill="#68E1FD"/>
<path d="M341.151 41.0803V61.7302H335.779V53.0509H334.159V61.7302H328.786V41.0803H334.159V48.4675H335.754V41.0803H341.151Z" fill="#68E1FD"/>
<path d="M360.155 53.1729C360.155 55.2452 360.155 56.708 360.009 57.5735C359.918 58.4286 359.603 59.2445 359.096 59.9384C358.567 60.6692 357.846 61.2389 357.012 61.584C356.043 61.9816 355.002 62.1765 353.955 62.157C352.935 62.1704 351.922 61.9884 350.97 61.6206C350.15 61.2894 349.434 60.7454 348.894 60.0448C348.354 59.3441 348.011 58.5121 347.9 57.6345C347.773 56.1509 347.72 54.6618 347.742 53.1729V49.6378C347.742 47.5655 347.742 46.0905 347.888 45.2372C347.989 44.3619 348.322 43.5294 348.85 42.8247C349.379 42.12 350.085 41.5685 350.897 41.2267C351.864 40.8224 352.906 40.6271 353.955 40.6538C354.971 40.6344 355.981 40.8167 356.927 41.1901C357.768 41.5266 358.502 42.0873 359.047 42.8114C359.567 43.5014 359.895 44.3176 359.997 45.1763C360.131 46.6595 360.184 48.1489 360.155 49.6378V53.1729ZM354.795 46.3831C354.826 45.7652 354.773 45.1459 354.637 44.5424C354.585 44.4135 354.493 44.3047 354.375 44.2322C354.256 44.1598 354.117 44.1275 353.979 44.1401C353.852 44.1341 353.726 44.1613 353.613 44.219C353.499 44.2767 353.403 44.363 353.333 44.4693C353.128 45.085 353.053 45.7368 353.114 46.3831V55.9888C353.076 56.7315 353.125 57.4761 353.26 58.2074C353.307 58.3466 353.401 58.4652 353.525 58.543C353.649 58.6208 353.797 58.653 353.942 58.6341C354.097 58.6478 354.252 58.6065 354.379 58.5172C354.506 58.428 354.597 58.2967 354.637 58.1465C354.782 57.3835 354.835 56.6059 354.795 55.8304V46.3831Z" fill="#68E1FD"/>
<path d="M366.758 41.0803H372.155C373.29 41.0478 374.424 41.1625 375.529 41.4217C376.203 41.5853 376.818 41.9311 377.308 42.4212C377.704 42.8677 377.977 43.4097 378.1 43.9938C378.274 44.9382 378.347 45.8985 378.319 46.8584V48.6747C378.37 49.6555 378.229 50.6367 377.905 51.5638C377.597 52.1985 377.062 52.6944 376.407 52.9534C375.499 53.3089 374.529 53.4748 373.556 53.441H372.118V61.7546H366.758V41.0803ZM372.118 44.6154V49.8937H372.52C372.708 49.9162 372.897 49.8948 373.075 49.8314C373.253 49.7679 373.413 49.6641 373.544 49.528C373.785 49.063 373.882 48.537 373.824 48.0165V46.3099C373.887 45.8259 373.77 45.3355 373.495 44.9324C373.087 44.6705 372.6 44.5585 372.118 44.6154Z" fill="#68E1FD"/>
</g>
<defs>
<linearGradient id="paint0_linear" x1="171.124" y1="231.501" x2="152.138" y2="241.901" gradientUnits="userSpaceOnUse">
<stop stop-opacity="0"/>
<stop offset="0.97"/>
</linearGradient>
<linearGradient id="paint1_linear" x1="2265.17" y1="32498.9" x2="6432.55" y2="32561.1" gradientUnits="userSpaceOnUse">
<stop stop-opacity="0"/>
<stop offset="0.97"/>
</linearGradient>
<linearGradient id="paint2_linear" x1="1392.12" y1="19838" x2="1392.12" y2="30960.9" gradientUnits="userSpaceOnUse">
<stop stop-opacity="0"/>
<stop offset="0.97"/>
</linearGradient>
<linearGradient id="paint3_linear" x1="3751.88" y1="6687.44" x2="2618.85" y2="12764.3" gradientUnits="userSpaceOnUse">
<stop stop-opacity="0"/>
<stop offset="0.97"/>
</linearGradient>
<linearGradient id="paint4_linear" x1="60.838" y1="493.342" x2="86.3233" y2="493.342" gradientUnits="userSpaceOnUse">
<stop stop-color="#ECC4D7"/>
<stop offset="0.42" stop-color="#EFD4D1"/>
<stop offset="1" stop-color="#F2EAC9"/>
</linearGradient>
<linearGradient id="paint5_linear" x1="2914.5" y1="52551.6" x2="3487.59" y2="52551.6" gradientUnits="userSpaceOnUse">
<stop stop-color="#ECC4D7"/>
<stop offset="0.42" stop-color="#EFD4D1"/>
<stop offset="1" stop-color="#F2EAC9"/>
</linearGradient>
<linearGradient id="paint6_linear" x1="330.467" y1="-267.205" x2="345.58" y2="489.258" gradientUnits="userSpaceOnUse">
<stop stop-color="white" stop-opacity="0"/>
<stop offset="0.84" stop-color="white" stop-opacity="0.84"/>
<stop offset="0.97" stop-color="white"/>
</linearGradient>
<linearGradient id="paint7_linear" x1="2327.56" y1="866.668" x2="2329.38" y2="945.792" gradientUnits="userSpaceOnUse">
<stop stop-color="white" stop-opacity="0"/>
<stop offset="0.84" stop-color="white" stop-opacity="0.84"/>
<stop offset="0.97" stop-color="white"/>
</linearGradient>
<linearGradient id="paint8_linear" x1="3323.89" y1="432.999" x2="3324.24" y2="457.444" gradientUnits="userSpaceOnUse">
<stop stop-opacity="0"/>
<stop offset="0.97"/>
</linearGradient>
<linearGradient id="paint9_linear" x1="5048.7" y1="3637.65" x2="4895.42" y2="3883.64" gradientUnits="userSpaceOnUse">
<stop stop-opacity="0"/>
<stop offset="0.97"/>
</linearGradient>
<linearGradient id="paint10_linear" x1="9503.05" y1="5878.2" x2="9150.05" y2="7560.89" gradientUnits="userSpaceOnUse">
<stop stop-opacity="0"/>
<stop offset="0.97"/>
</linearGradient>
<linearGradient id="paint11_linear" x1="12274.5" y1="3849.56" x2="12229.1" y2="4140.18" gradientUnits="userSpaceOnUse">
<stop stop-opacity="0"/>
<stop offset="0.97"/>
</linearGradient>
<linearGradient id="paint12_linear" x1="6618.01" y1="2499.98" x2="6620.96" y2="2584.13" gradientUnits="userSpaceOnUse">
<stop stop-opacity="0"/>
<stop offset="0.97"/>
</linearGradient>
<linearGradient id="paint13_linear" x1="8232.9" y1="22412.3" x2="9018.08" y2="22412.3" gradientUnits="userSpaceOnUse">
<stop stop-opacity="0"/>
<stop offset="0.97"/>
</linearGradient>
<linearGradient id="paint14_linear" x1="4622.49" y1="13835.4" x2="6136.04" y2="14260.4" gradientUnits="userSpaceOnUse">
<stop stop-color="#ECC4D7"/>
<stop offset="0.42" stop-color="#EFD4D1"/>
<stop offset="1" stop-color="#F2EAC9"/>
</linearGradient>
<linearGradient id="paint15_linear" x1="1920.7" y1="22364.8" x2="4040.69" y2="22426.9" gradientUnits="userSpaceOnUse">
<stop stop-opacity="0"/>
<stop offset="0.97"/>
</linearGradient>
<linearGradient id="paint16_linear" x1="10059.1" y1="27509.1" x2="10059.1" y2="40779.1" gradientUnits="userSpaceOnUse">
<stop stop-opacity="0"/>
<stop offset="0.97"/>
</linearGradient>
<linearGradient id="paint17_linear" x1="1644.91" y1="12261.6" x2="1602.43" y2="11655" gradientUnits="userSpaceOnUse">
<stop stop-color="white" stop-opacity="0"/>
<stop offset="0.84" stop-color="white" stop-opacity="0.84"/>
<stop offset="0.97" stop-color="white"/>
</linearGradient>
<linearGradient id="paint18_linear" x1="105.437" y1="560.095" x2="103.949" y2="540.871" gradientUnits="userSpaceOnUse">
<stop stop-color="white" stop-opacity="0"/>
<stop offset="0.69" stop-color="white" stop-opacity="0.58"/>
<stop offset="0.84" stop-color="white" stop-opacity="0.84"/>
<stop offset="0.97" stop-color="white"/>
</linearGradient>
<linearGradient id="paint19_linear" x1="15157.6" y1="14072.3" x2="18591" y2="14711.4" gradientUnits="userSpaceOnUse">
<stop stop-opacity="0"/>
<stop offset="0.97"/>
</linearGradient>
<linearGradient id="paint20_linear" x1="9297.88" y1="23484.3" x2="11585" y2="23663.8" gradientUnits="userSpaceOnUse">
<stop stop-color="white" stop-opacity="0"/>
<stop offset="0.84" stop-color="white" stop-opacity="0.84"/>
<stop offset="0.97" stop-color="white"/>
</linearGradient>
<linearGradient id="paint21_linear" x1="13446.5" y1="23245.6" x2="11029.1" y2="23887.4" gradientUnits="userSpaceOnUse">
<stop stop-color="white" stop-opacity="0"/>
<stop offset="0.84" stop-color="white" stop-opacity="0.84"/>
<stop offset="0.97" stop-color="white"/>
</linearGradient>
<linearGradient id="paint22_linear" x1="2953.8" y1="13503.7" x2="3233.16" y2="13503.7" gradientUnits="userSpaceOnUse">
<stop stop-color="#ECC4D7"/>
<stop offset="0.42" stop-color="#EFD4D1"/>
<stop offset="1" stop-color="#F2EAC9"/>
</linearGradient>
<linearGradient id="paint23_linear" x1="8259.28" y1="17391.1" x2="10267.9" y2="17317.7" gradientUnits="userSpaceOnUse">
<stop stop-opacity="0"/>
<stop offset="0.97"/>
</linearGradient>
<linearGradient id="paint24_linear" x1="14355.9" y1="5098.57" x2="14360.5" y2="5597.74" gradientUnits="userSpaceOnUse">
<stop stop-color="white" stop-opacity="0"/>
<stop offset="0.84" stop-color="white" stop-opacity="0.84"/>
<stop offset="0.97" stop-color="white"/>
</linearGradient>
<linearGradient id="paint25_linear" x1="3303.81" y1="8585.6" x2="3417.73" y2="9881.98" gradientUnits="userSpaceOnUse">
<stop stop-color="white" stop-opacity="0"/>
<stop offset="0.84" stop-color="white" stop-opacity="0.84"/>
<stop offset="0.97" stop-color="white"/>
</linearGradient>
<linearGradient id="paint26_linear" x1="3001.86" y1="8396.99" x2="2172.02" y2="8404.95" gradientUnits="userSpaceOnUse">
<stop stop-opacity="0"/>
<stop offset="0.97"/>
</linearGradient>
<linearGradient id="paint27_linear" x1="3305.87" y1="7832.07" x2="1276.2" y2="10910.9" gradientUnits="userSpaceOnUse">
<stop stop-color="white" stop-opacity="0"/>
<stop offset="0.84" stop-color="white" stop-opacity="0.84"/>
<stop offset="0.97" stop-color="white"/>
</linearGradient>
<linearGradient id="paint28_linear" x1="3508.03" y1="8225.08" x2="2891.77" y2="8271.17" gradientUnits="userSpaceOnUse">
<stop stop-opacity="0"/>
<stop offset="0.97"/>
</linearGradient>
<linearGradient id="paint29_linear" x1="3675" y1="7926.52" x2="1555.46" y2="11319.4" gradientUnits="userSpaceOnUse">
<stop stop-color="white" stop-opacity="0"/>
<stop offset="0.84" stop-color="white" stop-opacity="0.84"/>
<stop offset="0.97" stop-color="white"/>
</linearGradient>
<linearGradient id="paint30_linear" x1="4459.27" y1="8155.14" x2="3352.49" y2="8240.97" gradientUnits="userSpaceOnUse">
<stop stop-opacity="0"/>
<stop offset="0.97"/>
</linearGradient>
<linearGradient id="paint31_linear" x1="4963.35" y1="7444.4" x2="3511.3" y2="10797.8" gradientUnits="userSpaceOnUse">
<stop stop-color="white" stop-opacity="0"/>
<stop offset="0.84" stop-color="white" stop-opacity="0.84"/>
<stop offset="0.97" stop-color="white"/>
</linearGradient>
<linearGradient id="paint32_linear" x1="6577.05" y1="8009.91" x2="4094.96" y2="8217.81" gradientUnits="userSpaceOnUse">
<stop stop-opacity="0"/>
<stop offset="0.97"/>
</linearGradient>
<linearGradient id="paint33_linear" x1="17968.4" y1="1212.45" x2="18054.8" y2="1818.3" gradientUnits="userSpaceOnUse">
<stop stop-opacity="0"/>
<stop offset="0.97"/>
</linearGradient>
<linearGradient id="paint34_linear" x1="3494.33" y1="1550.59" x2="3621.89" y2="1603.92" gradientUnits="userSpaceOnUse">
<stop stop-opacity="0"/>
<stop offset="0.97"/>
</linearGradient>
<linearGradient id="paint35_linear" x1="9151.32" y1="6788.84" x2="7990.43" y2="13464.3" gradientUnits="userSpaceOnUse">
<stop stop-opacity="0"/>
<stop offset="0.97"/>
</linearGradient>
<linearGradient id="paint36_linear" x1="4968.62" y1="7382.1" x2="1906.74" y2="11212.6" gradientUnits="userSpaceOnUse">
<stop stop-opacity="0"/>
<stop offset="0.97"/>
</linearGradient>
<linearGradient id="paint37_linear" x1="3384.96" y1="1840.67" x2="3159.8" y2="1864.93" gradientUnits="userSpaceOnUse">
<stop stop-opacity="0"/>
<stop offset="0.97"/>
</linearGradient>
<linearGradient id="paint38_linear" x1="2730.29" y1="2028.77" x2="2559.16" y2="2748.03" gradientUnits="userSpaceOnUse">
<stop stop-opacity="0"/>
<stop offset="0.97"/>
</linearGradient>
<linearGradient id="paint39_linear" x1="2213.03" y1="417.284" x2="2210.23" y2="433.219" gradientUnits="userSpaceOnUse">
<stop stop-color="white" stop-opacity="0"/>
<stop offset="0.84" stop-color="white" stop-opacity="0.84"/>
<stop offset="0.97" stop-color="white"/>
</linearGradient>
<linearGradient id="paint40_linear" x1="2198.48" y1="476.455" x2="2198.8" y2="502.08" gradientUnits="userSpaceOnUse">
<stop stop-color="white" stop-opacity="0"/>
<stop offset="0.84" stop-color="white" stop-opacity="0.84"/>
<stop offset="0.97" stop-color="white"/>
</linearGradient>
<linearGradient id="paint41_linear" x1="2298.66" y1="1085.78" x2="2302.61" y2="1241.21" gradientUnits="userSpaceOnUse">
<stop stop-color="white" stop-opacity="0"/>
<stop offset="0.84" stop-color="white" stop-opacity="0.84"/>
<stop offset="0.97" stop-color="white"/>
</linearGradient>
<linearGradient id="paint42_linear" x1="7080.29" y1="7828.81" x2="3991.73" y2="7858.2" gradientUnits="userSpaceOnUse">
<stop stop-opacity="0"/>
<stop offset="0.97"/>
</linearGradient>
<linearGradient id="paint43_linear" x1="7404.97" y1="7854.52" x2="6570.86" y2="7761.56" gradientUnits="userSpaceOnUse">
<stop stop-color="white" stop-opacity="0"/>
<stop offset="0.84" stop-color="white" stop-opacity="0.84"/>
<stop offset="0.97" stop-color="white"/>
</linearGradient>
<linearGradient id="paint44_linear" x1="1344.87" y1="19115.2" x2="-1692.24" y2="19046.5" gradientUnits="userSpaceOnUse">
<stop stop-opacity="0"/>
<stop offset="0.97"/>
</linearGradient>
<linearGradient id="paint45_linear" x1="1245.61" y1="23755.1" x2="-458.315" y2="23818.4" gradientUnits="userSpaceOnUse">
<stop stop-opacity="0"/>
<stop offset="0.97"/>
</linearGradient>
<linearGradient id="paint46_linear" x1="2549.23" y1="24824.7" x2="2848" y2="24824.7" gradientUnits="userSpaceOnUse">
<stop stop-opacity="0"/>
<stop offset="0.97"/>
</linearGradient>
<linearGradient id="paint47_linear" x1="1910.06" y1="21973" x2="1910.06" y2="29344.6" gradientUnits="userSpaceOnUse">
<stop stop-opacity="0"/>
<stop offset="0.97"/>
</linearGradient>
<linearGradient id="paint48_linear" x1="3117.06" y1="1742.92" x2="3117.06" y2="2070.11" gradientUnits="userSpaceOnUse">
<stop stop-opacity="0"/>
<stop offset="0.97"/>
</linearGradient>
<linearGradient id="paint49_linear" x1="18654.7" y1="5042.84" x2="18656.2" y2="6358.1" gradientUnits="userSpaceOnUse">
<stop stop-opacity="0"/>
<stop offset="0.97"/>
</linearGradient>
<clipPath id="clip0">
<rect width="507" height="583" fill="white"/>
</clipPath>
</defs>
</svg>
